<?xml version="1.0" standalone="no"?>
<!DOCTYPE svg PUBLIC "-//W3C//DTD SVG 1.1//EN" "http://www.w3.org/Graphics/SVG/1.1/DTD/svg11.dtd" >
<!--
2013-9-30: Created.
-->
<svg>
<metadata>
Created by iconfont
</metadata>
<defs>

<font id="iconfont" horiz-adv-x="1024" >
  <font-face
    font-family="iconfont"
    font-weight="500"
    font-stretch="normal"
    units-per-em="1024"
    ascent="896"
    descent="-128"
  />
    <missing-glyph />
    
    <glyph glyph-name="xianshi1" unicode="&#59062;" d="M895.887692 385.191128l-0.12382 0c-61.560054 158.704558-210.064296 270.734074-383.779733 270.734074-173.684738 0-322.204329-112.030539-383.764384-270.734074l-0.109494 0c0.01535-0.063445 0.030699-0.109494 0.062422-0.155543-0.031722-0.047072-0.047072-0.094144-0.062422-0.141216l0.109494 0c61.560054-159.946852 210.064296-272.818549 383.764384-272.818549 173.715437 0 322.219679 112.87272 383.779733 272.818549l0.12382 0c-0.030699 0.047072-0.046049 0.094144-0.062422 0.141216C895.841643 385.081635 895.856993 385.127683 895.887692 385.191128zM511.984139 166.715255c-144.458089 0-268.829701 89.348957-327.077314 218.320331 58.248635 128.009466 182.619224 216.703507 327.077314 216.703507 144.473439 0 268.844028-88.694041 327.108013-216.703507C780.828167 256.064212 656.457578 166.715255 511.984139 166.715255zM623.779318 448.079434c0-35.302017-28.647457-63.950498-63.981197-63.950498-35.349089 0-63.981197 28.64848-63.981197 63.950498s28.632107 63.949474 63.981197 63.949474c0.177032 0 0.352017-0.01228 0.529049-0.013303-15.042601 5.599532-31.324426 8.667404-48.327682 8.667404-76.258825 0-138.084938-61.576427-138.084938-137.553842 0-75.986625 61.826114-137.562029 138.084938-137.562029 76.259848 0 138.084938 61.575404 138.084938 137.562029 0 32.108279-11.04352 61.644989-29.550013 85.049025C622.629121 461.855182 623.779318 455.102385 623.779318 448.079434z"  horiz-adv-x="1024" />

    
    <glyph glyph-name="icon-test1" unicode="&#59045;" d="M921.336294 540.873864c-26.714432-43.134403-61.029982-80.7143-100.382245-112.39586 0.440022-0.860601 1.052982-1.579985 1.405-2.492774L872.663758 296.61579c5.282307-13.628392-1.282203-29.136597-14.656815-34.56012a25.275663 25.275663 0 0 0-9.600658-1.868557c-10.760065 0-20.273742 6.599302-24.240078 16.814968l-46.689368 120.083959c-37.473473-23.722284-78.352509-42.590004-121.602546-55.57883l24.942066-123.252115c1.403976-6.950296 0.069585-14.049994-3.756558-19.983123-3.826142-5.941316-9.688663-9.996678-16.533558-11.444657-1.702782-0.367367-3.492544-0.552585-5.300726-0.552585-12.286838 0-23.011086 8.933463-25.50386 21.24793l-24.555256 121.425513a501.975692 501.975692 0 0 0-93.15054-8.722662c-33.946137 0-67.36527 3.598968-99.872638 10.207479l-20.886703-122.111128c-2.229784-12.769838-13.024641-22.046109-25.678846-22.046109-1.439792 0-2.931772 0.122797-4.563945 0.385786-6.828522 1.219781-12.812817 5.099135-16.814968 10.917654-4.019547 5.819542-5.564739 12.884448-4.370541 19.887956l21.553899 125.98025c-45.38977 14.332427-87.955214 35.332716-126.675074 61.511959l-37.824467-105.699344c-3.720741-10.478655-13.550621-17.508769-24.485671-17.508769-3.071965 0-6.073322 0.544399-8.91709 1.623987-6.564509 2.439562-11.794627 7.327896-14.7264 13.778818-2.949168 6.441713-3.229554 13.656021-0.842181 20.334117l43.213198 120.751155c-34.350342 29.618575-64.469314 63.890122-88.463798 102.636588-3.739161 6.002714-4.949732 13.129019-3.405563 20.071128 1.526773 6.932899 5.616928 12.848633 11.514241 16.630772 4.178159 2.719948 8.986675 4.151553 13.901615 4.151553 9.021467 0 17.271362-4.65195 22.063505-12.428053 74.825173-120.794134 214.786855-195.830107 365.279381-195.830107 150.476153 0 290.420439 75.035974 365.245611 195.820897 4.792143 7.78429 13.042037 12.43624 22.046109 12.43624 4.931313 0 9.741875-1.430582 13.901615-4.143367 5.91471-3.790326 10.003841-9.697873 11.531637-16.638958 1.546216-6.933923 0.335644-14.069437-3.402493-20.072151z"  horiz-adv-x="1024" />

    
    <glyph glyph-name="circular-QQ" unicode="&#59093;" d="M512 846.848C257.024 846.848 51.2 640 51.2 386.048s206.848-460.8 460.8-460.8 460.8 205.824 460.8 460.8c0 253.952-206.848 460.8-460.8 460.8zM278.528 444.416l-2.048 4.096v5.12l-1.024 2.048v11.264l1.024 4.096 1.024 5.12 2.048 5.12 2.048 5.12 3.072 6.144 4.096 6.144V506.88l1.024 5.12 2.048 5.12 2.048 6.144 1.024 3.072 1.024 3.072 2.048 3.072 2.048 2.048V547.84l1.024 7.168 1.024 8.192 2.048 10.24 3.072 10.24 2.048 6.144 2.048 6.144 2.048 6.144 3.072 6.144 3.072 7.168 3.072 6.144 4.096 7.168 5.12 7.168 2.048 4.096 2.048 3.072 5.12 7.168 5.12 7.168 6.144 7.168 6.144 7.168 7.168 7.168 7.168 7.168 8.192 8.192 5.12 5.12 6.144 5.12 7.168 4.096 7.168 4.096 7.168 4.096 8.192 3.072 8.192 4.096 8.192 3.072 8.192 3.072 9.216 3.072 9.216 2.048 9.216 2.048 9.216 2.048 9.216 1.024 9.216 1.024 10.24 1.024h29.696l10.24-1.024 10.24-1.024 10.24-1.024 9.216-2.048 10.24-2.048 9.216-2.048 10.24-3.072 9.216-3.072 9.216-4.096 9.216-4.096 9.216-4.096 8.192-5.12 8.192-5.12 7.168-5.12 3.072-3.072 3.072-2.048 6.144-6.144 5.12-5.12 5.12-6.144 5.12-6.144 4.096-6.144 5.12-6.144 4.096-7.168 4.096-6.144 4.096-7.168 3.072-6.144 5.12-12.288 3.072-6.144 2.048-6.144 2.048-6.144 2.048-6.144 1.024-5.12 2.048-6.144 3.072-11.264 2.048-10.24 1.024-9.216 1.024-7.168 2.048-11.264v-2.048l1.024-2.048 4.096-6.144 2.048-4.096 2.048-4.096 3.072-4.096 2.048-5.12 1.024-5.12 2.048-6.144 1.024-6.144 1.024-3.072v-20.48l-1.024-4.096-1.024-8.192-2.048-4.096-1.024-4.096v-1.024l1.024-1.024 2.048-3.072 9.216-13.312 7.168-9.216 3.072-6.144 4.096-7.168 4.096-8.192 4.096-8.192 4.096-9.216 5.12-10.24 3.072-6.144 3.072-6.144 2.048-7.168 2.048-6.144 2.048-6.144 2.048-6.144 2.048-11.264 2.048-12.288 1.024-10.24V281.6l-1.024-5.12-1.024-9.216-2.048-8.192-2.048-7.168-1.024-3.072-2.048-4.096-1.024-2.048-2.048-3.072-2.048-2.048-2.048-2.048-2.048-2.048-2.048-2.048-3.072-1.024-2.048-1.024-2.048-1.024H798.72l-2.048 1.024-3.072 1.024-1.024 1.024-2.048 1.024-2.048 2.048-2.048 2.048-3.072 3.072-3.072 4.096-2.048 5.12-3.072 4.096-3.072 4.096-4.096 8.192-4.096 8.192h-1.024l-1.024-2.048-1.024-2.048-2.048-3.072-3.072-8.192-4.096-11.264-5.12-13.312-4.096-7.168-4.096-7.168-5.12-8.192-5.12-8.192-3.072-3.072-3.072-4.096-8.192-7.168 1.024-1.024 1.024-1.024 4.096-2.048 16.384-8.192 7.168-4.096 7.168-4.096 7.168-5.12 6.144-5.12 3.072-2.048 2.048-3.072 2.048-3.072 2.048-3.072 1.024-3.072 1.024-3.072v-3.072l1.024-3.072-1.024-2.048v-4.096h-3.072v-2.048l-1.024-2.048-3.072-4.096-3.072-2.048-2.048-2.048-2.048-2.048-4.096-3.072-5.12-3.072-5.12-3.072-6.144-3.072-6.144-2.048-3.072-1.024-4.096-1.024-7.168-2.048-8.192-2.048-8.192-2.048-8.192-1.024H686.08l-9.216-1.024h-27.648l-10.24 1.024-9.216 1.024-10.24 1.024-10.24 1.024-10.24 1.024-10.24 2.048-10.24 2.048-10.24 3.072-10.24 4.096-10.24 3.072-5.12 2.048-5.12 2.048-3.072 1.024-3.072 1.024h-8.192l-9.216 1.024h-5.12l-6.144 1.024-1.024-5.12-5.12-3.072-7.168-4.096-8.192-4.096-5.12-2.048-5.12-2.048-11.264-5.12-6.144-2.048-6.144-2.048h-22.528l-5.12-2.048H366.592l-17.408 2.048-8.192 1.024-8.192 1.024-8.192 1.024-7.168 1.024-7.168 2.048-7.168 2.048-6.144 3.072-6.144 2.048-6.144 3.072-5.12 3.072-5.12 4.096-2.048 2.048-2.048 2.048-2.048 2.048V117.76l-1.024 2.048-1.024 2.048-2.048 4.096-1.024 2.048-1.024 3.072v2.048l1.024 3.072v3.072l1.024 3.072V151.552l1.024 3.072 1.024 3.072 2.048 4.096 1.024 2.048 1.024 2.048 3.072 4.096 2.048 2.048 2.048 1.024 2.048 2.048 3.072 1.024 3.072 2.048 3.072 2.048 4.096 1.024 4.096 1.024 4.096 1.024 4.096 1.024 5.12 1.024h6.144l1.024 1.024v1.024l-1.024 1.024-3.072 1.024-7.168 6.144-5.12 4.096-6.144 5.12-6.144 5.12-2.048 5.12-7.168 8.192-2.048 4.096-3.072 4.096-3.072 5.12-3.072 5.12-3.072 5.12-2.048 6.144-3.072 6.144-3.072 7.168-1.024 7.168-2.048 8.192h-2.048v1.024h-1.024l-1.024-1.024h-1.024l-1.024-1.024v-2.048l-1.024-1.024-1.024-2.048-3.072-6.144-2.048-4.096-3.072-3.072-3.072-4.096-3.072-4.096-3.072-4.096-3.072-3.072-4.096-3.072-3.072-3.072-4.096-3.072-4.096-2.048-5.12-1.024h-7.168l-1.024 2.048-2.048 1.024-2.048 5.12-1.024 2.048-1.024 4.096-1.024 4.096-1.024 4.096-2.048 8.192-1.024 5.12v16.384l1.024 12.288 1.024 6.144 1.024 6.144 1.024 7.168 2.048 6.144 2.048 7.168 2.048 7.168 3.072 7.168 3.072 7.168 4.096 7.168 3.072 8.192 4.096 7.168 5.12 8.192 5.12 7.168 5.12 8.192 4.096 5.12 6.144 6.144 6.144 6.144 3.072 3.072 3.072 3.072 5.12 4.096 5.12 4.096 8.192 7.168 6.144 4.096 3.072 2.048z"  horiz-adv-x="1024" />

    
    <glyph glyph-name="circular-WeChat" unicode="&#59096;" d="M571.392 377.856c-12.288 0-25.6-12.288-25.6-25.6s12.288-25.6 25.6-25.6c19.456 0 31.744 12.288 31.744 25.6s-12.288 25.6-31.744 25.6zM711.68 377.856c-12.288 0-25.6-12.288-25.6-25.6s12.288-25.6 25.6-25.6c19.456 0 31.744 12.288 31.744 25.6s-13.312 25.6-31.744 25.6zM311.296 562.176c-19.456 0-37.888-12.288-37.888-31.744 0-19.456 19.456-31.744 37.888-31.744 19.456 0 31.744 12.288 31.744 31.744 0 19.456-12.288 31.744-31.744 31.744zM489.472 498.688c19.456 0 31.744 12.288 31.744 31.744 0 19.456-12.288 31.744-31.744 31.744-19.456 0-37.888-12.288-37.888-31.744-1.024-18.432 18.432-31.744 37.888-31.744zM498.688 823.296c-245.76 0-445.44-199.68-445.44-445.44S252.928-66.56 498.688-66.56s445.44 199.68 445.44 445.44S744.448 823.296 498.688 823.296zM394.24 238.592c-31.744 0-57.344 6.144-89.088 12.288l-89.088-44.032 25.6 76.8c-63.488 44.032-101.376 101.376-101.376 171.008C139.264 575.488 253.952 670.72 394.24 670.72c124.928 0 234.496-75.776 256-178.176-8.192 1.024-16.384 1.024-24.576 1.024-120.832 0-216.064-90.112-216.064-200.704 0-18.432 3.072-35.84 8.192-53.248-8.192-1.024-16.384-1.024-23.552-1.024zM768 149.504l19.456-63.488-69.632 37.888c-25.6-6.144-51.2-12.288-75.776-12.288-120.832 0-216.064 82.944-216.064 184.32s95.232 184.32 216.064 184.32c113.664 0 216.064-82.944 216.064-184.32-1.024-57.344-38.912-108.544-90.112-146.432z"  horiz-adv-x="1024" />

    
    <glyph glyph-name="circular-Weibo" unicode="&#59097;" d="M430.08 431.104c-115.712-5.12-209.92-67.584-209.92-145.408 0-76.8 94.208-135.168 209.92-130.048 116.736 5.12 210.944 77.824 209.92 155.648 0 76.8-93.184 124.928-209.92 119.808z m79.872-194.56c-34.816-46.08-105.472-68.608-174.08-31.744-32.768 17.408-31.744 52.224-31.744 52.224s-13.312 109.568 103.424 122.88c116.736 13.312 137.216-98.304 102.4-143.36zM431.104 309.248c-7.168-6.144-9.216-16.384-5.12-22.528 4.096-7.168 13.312-7.168 20.48-2.048 7.168 6.144 10.24 16.384 6.144 22.528-4.096 6.144-13.312 8.192-21.504 2.048zM376.832 294.912c-22.528-3.072-37.888-21.504-37.888-39.936 0-18.432 17.408-30.72 38.912-28.672 21.504 2.048 38.912 19.456 39.936 37.888 0 18.432-16.384 32.768-40.96 30.72zM512 841.728C258.048 841.728 52.224 635.904 52.224 381.952 52.224 129.024 258.048-76.8 512-76.8s459.776 205.824 459.776 458.752C971.776 635.904 765.952 841.728 512 841.728z m232.448-581.632c-47.104-102.4-205.824-151.552-322.56-142.336-111.616 8.192-254.976 45.056-269.312 180.224 0 0-8.192 61.44 51.2 140.288 0 0 84.992 118.784 184.32 152.576 99.328 33.792 110.592-23.552 110.592-57.344-5.12-28.672-14.336-45.056 22.528-33.792 0 0 97.28 45.056 137.216 5.12 31.744-32.768 5.12-76.8 5.12-76.8s-13.312-15.36 14.336-20.48c27.648-6.144 114.688-46.08 66.56-147.456z m-96.256 280.576c-11.264 0-19.456 9.216-19.456 19.456 0 11.264 9.216 19.456 19.456 19.456 0 0 119.808 21.504 105.472-106.496v-2.048c-1.024-9.216-9.216-16.384-18.432-16.384-11.264 0-19.456 8.192-20.48 19.456 0 0 19.456 84.992-66.56 66.56z m175.104-121.856c-15.36 0-27.648 6.144-27.648 21.504 0 13.312 5.12 26.624 5.12 26.624 2.048 5.12 15.36 39.936-8.192 92.16-43.008 71.68-128 72.704-138.24 68.608-10.24-4.096-25.6-6.144-25.6-6.144-15.36 0-27.648 12.288-27.648 27.648 0 13.312 9.216 24.576 20.48 27.648l1.024 1.024c1.024 0 2.048 2.048 3.072 2.048 11.264 3.072 54.272 12.288 95.232 3.072C794.624 665.6 896 609.28 849.92 445.44c-3.072-20.48-13.312-26.624-26.624-26.624z"  horiz-adv-x="1024" />

    
    <glyph glyph-name="gengduo" unicode="&#59042;" d="M936.512 374.336a28.288 28.288 0 1 0 56.64 0 28.352 28.352 0 1 0-56.64 0M964.8 430.976c31.168 0 56.704-25.408 56.704-56.64s-25.472-56.704-56.704-56.704-56.64 25.472-56.64 56.704 25.472 56.64 56.64 56.64z m0-56.64v28.352-28.352zM483.2 374.336a28.352 28.352 0 1 0 56.704-0.128 28.352 28.352 0 0 0-56.704 0.128M511.552 430.976a56.704 56.704 0 1 0-0.128-113.408 56.704 56.704 0 0 0 0.128 113.408z m-0.064-56.64c0.064 0 0.064 0 0 0v28.288-28.288zM29.888 374.336a28.288 28.288 0 1 0 56.576 0 28.288 28.288 0 0 0-56.576 0M58.176 430.976c31.232 0 56.704-25.408 56.704-56.64a56.768 56.768 0 0 0-56.704-56.704 56.704 56.704 0 0 0 0 113.344z m0-56.64H58.24l-0.064 28.352v-28.352z"  horiz-adv-x="1024" />

    
    <glyph glyph-name="fanhuidingbu" unicode="&#58891;" d="M877.330034 284.749532 542.062178 622.22159c-7.429203 7.463995-17.135262 11.05273-26.801413 10.978029-1.309832 0.107447-2.426259 0.74599-3.736091 0.74599-5.451152 0-10.527774-1.270946-15.192004-3.361561-4.705162-1.793856-9.18315-4.516874-12.992919-8.328689L180.811554 320.25314c-14.600533-14.559601-14.633279-38.192857-0.039909-52.78725 7.2798-7.315616 16.838503-10.977006 26.429952-10.977006 9.55768 0 19.077497 3.660366 26.396183 10.902304l240.59873 240.222153 0-485.548558c0-20.643156 16.72287-37.332257 37.32714-37.332257 20.609387 0 37.332257 16.690124 37.332257 37.332257L548.855908 509.443014l275.53952-277.328259c7.2798-7.318686 16.912182-11.015891 26.463722-11.015891 9.559727 0 19.042705 3.625574 26.323529 10.862395C891.850749 246.48709 891.889635 270.155139 877.330034 284.749532L877.330034 284.749532zM922.166195 708.606029 100.889293 708.606029c-20.61041 0-37.334303 16.723893-37.334303 37.32714 0 20.608364 16.723893 37.332257 37.334303 37.332257L922.166195 783.265426c20.642133 0 37.32714-16.723893 37.32714-37.332257C959.493336 725.330946 942.808328 708.606029 922.166195 708.606029L922.166195 708.606029zM922.166195 708.606029"  horiz-adv-x="1024" />

    
    <glyph glyph-name="zuanshi" unicode="&#59029;" d="M951.092503 522.665153 709.6168 733.788571c-3.65525 3.14462-8.31334 8.083096-13.133112 8.083096L429.747671 741.871667c-2.719948 0-5.461385 0-8.085142 0L300.521494 741.871667c-5.227048 0-10.253528-4.973268-14.007015-8.619308L72.031547 524.004661c-7.81192-7.566326-8.190543-20.23895-0.854461-28.27702l429.470355-466.61023c3.802606-4.164856 9.178033-1.51347 14.81645-1.51347 0 0 0.007163 0 0.011256 0 0.010233 0 0.024559 0 0.034792 0 0.029676 0 0.054235 0 0.083911 0 5.684466 0 11.093662-2.994194 14.891152 1.240247l422.449451 466.767819c3.611248 4.028757 5.453199 8.514931 5.109368 13.909801C957.694875 514.926912 955.189821 519.137817 951.092503 522.665153zM328.095503 490.139366 461.71985 131.876796 134.747937 490.139366 328.095503 490.139366zM576.25442 701.963749l90.49813-170.892135L364.444363 531.071613l74.358545 170.892135L576.25442 701.963749zM662.23056 490.139366 515.613294 100.516554 370.632295 490.139366 662.23056 490.139366zM705.198164 490.139366l184.607508 0L570.931181 134.944668 705.198164 490.139366zM887.676172 531.071613 712.282512 531.071613l-90.489944 170.892135 67.224054 0L887.676172 531.071613zM308.672128 701.963749l86.136799 0-74.470085-170.892135L132.213207 531.071613 308.672128 701.963749z"  horiz-adv-x="1024" />

    
    <glyph glyph-name="youhuiquan" unicode="&#58886;" d="M698.88 468.48c11.264 0 20.48 9.216 20.48 20.48s-9.216 20.48-20.48 20.48H624.64l72.192 108.032c6.144 9.728 3.584 22.528-5.632 28.672-9.728 6.144-22.528 3.584-28.672-5.632l-87.552-131.072h-56.832c-2.048 0.512-4.096 1.024-6.144 1.024s-4.096-0.512-6.144-1.024H448.512l-87.04 131.072c-6.144 9.728-18.944 12.288-28.672 5.632-9.728-6.144-12.288-18.944-5.632-28.672L399.36 509.44H325.12c-11.264 0-20.48-9.216-20.48-20.48s9.216-20.48 20.48-20.48H491.52v-122.88H325.12c-11.264 0-20.48-9.216-20.48-20.48s9.216-20.48 20.48-20.48H491.52v-129.024c0-11.264 9.216-20.48 20.48-20.48s20.48 9.216 20.48 20.48v129.024h165.888c11.264 0 20.48 9.216 20.48 20.48s-9.216 20.48-20.48 20.48H532.48v122.88h166.4zM952.32 504.32c11.264 0 20.48 9.216 20.48 20.48V669.184C972.8 732.16 921.6 783.36 858.624 783.36H165.376C102.4 783.36 51.2 732.16 51.2 669.184v-144.384c0-11.264 9.216-20.48 20.48-20.48 56.32 0 102.4-46.08 102.4-102.4s-46.08-102.4-102.4-102.4c-11.264 0-20.48-9.216-20.48-20.48v-144.384C51.2 71.68 102.4 20.48 165.376 20.48h693.248c62.976 0 114.176 51.2 114.176 114.176v144.384c0 11.264-9.216 20.48-20.48 20.48-56.32 0-102.4 46.08-102.4 102.4s45.568 102.4 102.4 102.4z m-143.872-102.4c0-72.192 53.76-132.096 122.88-142.336v-125.44c0-40.448-32.768-72.704-72.704-72.704H165.376c-40.448 0-72.704 32.768-72.704 72.704v125.44c69.632 10.24 122.88 70.144 122.88 142.336 0 72.192-53.76 132.096-122.88 142.336V669.184c0 40.448 32.768 72.704 72.704 72.704h693.248c39.936 0 72.704-32.768 72.704-72.704v-125.44c-69.12-9.728-122.88-69.632-122.88-141.824z"  horiz-adv-x="1024" />

    
    <glyph glyph-name="naozhong" unicode="&#59536;" d="M917.333333 384c0 223.850667-181.482667 405.333333-405.333333 405.333333S106.666667 607.850667 106.666667 384s181.482667-405.333333 405.333333-405.333333 405.333333 181.482667 405.333333 405.333333z m-425.984 5.333333a21.333333 21.333333 0 0 1 6.101334-20.928l124.8-116.394666a21.333333 21.333333 0 0 1 29.12 31.189333l-118.08 110.122667L533.333333 394.666667v170.666666a21.333333 21.333333 0 0 1-42.666666 0v-170.666666c0-1.834667 0.213333-3.626667 0.682666-5.333334zM149.333333 384c0 200.298667 162.368 362.666667 362.666667 362.666667s362.666667-162.368 362.666667-362.666667-162.368-362.666667-362.666667-362.666667S149.333333 183.701333 149.333333 384z m612.501334-305.002667a21.333333 21.333333 0 1 1-30.336-29.994666l74.304-75.157334a21.333333 21.333333 0 1 1 30.336 29.994667l-74.304 75.157333z m-480.362667-29.994666a21.333333 21.333333 0 0 1-30.336 29.994666L176.832 3.84a21.333333 21.333333 0 1 1 30.336-29.994667l74.304 75.157334zM778.496 768A117.525333 117.525333 0 0 0 896 650.666667a21.333333 21.333333 0 0 1 42.666667 0C938.666667 738.922667 866.901333 810.666667 778.496 810.666667h-20.992a21.333333 21.333333 0 1 1 0-42.666667h20.992zM245.504 810.666667C157.098667 810.666667 85.333333 738.922667 85.333333 650.666667a21.333333 21.333333 0 0 1 42.666667 0C128 715.370667 180.672 768 245.504 768h20.992a21.333333 21.333333 0 1 1 0 42.666667h-20.992z"  horiz-adv-x="1024" />

    
    <glyph glyph-name="png" unicode="&#58881;" d="M512.1-64c-5.9 5.5-171.9 175.8-250.7 255.8-41.5 42.1-72.9 90.4-92.1 146.4-17 49.6-23.7 100.6-19.3 152.7 7.4 87.7 41.3 164 101.5 228.4 48.7 52.1 108.1 86 177.3 102.8 39.5 9.6 79.5 12.3 119.9 7.8 95.3-10.5 174.2-52.1 236.6-124.6 43.5-50.6 71.8-109 83.4-174.6 20.1-113.2-5.3-215.7-77-306-15.7-19.7-33.8-37.6-51.4-55.7-74.7-76.7-227.5-232.1-228.2-233z m0 76.4c12.5 12.8 240.7 247.2 252 263.9 47.9 70.9 65.5 148.8 52.2 233.2-9.4 59.6-34.4 112.4-74 158-36 41.3-79.9 71.1-131.8 88.8-49.8 17-100.9 21-152.8 11.5-60.3-11.1-113-37.5-156.9-80.4-56.3-55-88.4-121.9-96-200.2-3.5-36.3-0.5-72.4 8.5-107.8 13.4-52.5 37.8-99.3 75.4-138.4 68.4-71.1 217.2-222.9 223.4-228.6zM362.4 457.7c-0.6 81.8 66.6 149.1 149.4 149.7 82.7 0.6 149.9-66 150.6-149.3 0.7-82.2-66.9-150.2-149.7-150.3-83.6-0.2-150.8 67.9-150.3 149.9z m150.3 94c-50.1 0.8-93.3-40.8-94.1-90.5-0.9-53.6 40.6-94.4 89.4-95.7 52.9-1.4 96.4 39.4 97.2 90.4 0.8 52.6-40.1 95-92.5 95.8z"  horiz-adv-x="1024" />

    
    <glyph glyph-name="check" unicode="&#58885;" d="M512 782c53.8 0 105.9-10.5 154.9-31.3 47.4-20 90-48.7 126.5-85.3 36.6-36.6 65.3-79.1 85.3-126.5 20.7-49 31.3-101.2 31.3-154.9s-10.5-105.9-31.3-154.9c-20-47.4-48.7-90-85.3-126.5-36.6-36.6-79.1-65.3-126.5-85.3-49-20.8-101.1-31.3-154.9-31.3s-105.9 10.5-154.9 31.3c-47.4 20-90 48.7-126.5 85.3-36.6 36.6-65.3 79.1-85.3 126.5-20.8 49-31.3 101.1-31.3 154.9s10.5 105.9 31.3 154.9c20 47.4 48.7 90 85.3 126.5 36.6 36.6 79.1 65.3 126.5 85.3 49 20.8 101.1 31.3 154.9 31.3m0 50C264.6 832 64 631.4 64 384s200.6-448 448-448 448 200.6 448 448S759.4 832 512 832zM439.2 251.1L319 371.3c-9.7 9.7-9.7 25.6 0 35.4 9.7 9.7 25.6 9.7 35.4 0l120.2-120.2c9.7-9.7 9.7-25.6 0-35.4-9.8-9.8-25.7-9.8-35.4 0zM439.2 286.4l230.5 230.5c9.7 9.7 25.6 9.7 35.4 0 9.7-9.7 9.7-25.6 0-35.4L474.5 251.1c-9.7-9.7-25.6-9.7-35.4 0-9.7 9.7-9.7 25.6 0.1 35.3z"  horiz-adv-x="1024" />

    
    <glyph glyph-name="cammer" unicode="&#58887;" d="M511.9 16.2c-115.2 0-230.4 0.1-345.6-0.1-17.7 0-34.7 2.2-50.2 10.8-33.6 18.5-51.7 47.1-51.8 85.5-0.3 150.5-0.4 301 0 451.4 0.1 42.2 29.8 80.9 75.4 89.9 7.6 1.5 15.5 2 23.3 2 29.3 0.2 58.6 0.2 87.9 0 3.9 0 5.7 1 6.9 4.8 6.4 19.9 13.1 39.6 19.7 59.4 6.6 19.8 23.2 31.9 44.1 31.9h380.6c19.8 0 38.3-13.5 44.6-32.4 6.6-19.8 13.3-39.6 19.7-59.4 1-3.2 2.5-4.3 6-4.3 32.3 0.1 64.6 0.4 96.9-0.2 42.5-0.8 79.4-31.8 88-73.4 1.7-8.2 2.6-16.6 2.6-25 0.2-147.8 0.1-295.5 0.1-443.3 0-31.2-11.2-57.5-35.8-77.2-18.4-14.8-39.8-20.4-63.2-20.4H511.9z m-0.1 47.7c116.6 0 233.2 0.3 349.9-0.2 26.8-0.1 50.8 22.5 50.8 50.9-0.3 147.5-0.1 295-0.2 442.4 0 4.2-0.5 8.5-1.3 12.7-4 19.8-23.9 38.8-48.4 38.5-41.8-0.4-83.6-0.1-125.4-0.2-2.8 0-4.2 0.5-5.2 3.5-9.6 29.3-19.5 58.4-29.1 87.7-1.3 3.9-3 5.1-7.1 5.1-83.6-0.1-167.2-0.1-250.9-0.1H327.6c-2.5 0-4.5 0-5.5-3.2-9.7-29.4-19.6-58.7-29.2-88.1-1.2-3.7-2.6-5-6.7-5-41.5 0.2-83.1-0.3-124.6 0.2-26.6 0.3-49.8-23.1-49.8-50 0.3-147.9 0.1-295.8 0.2-443.7 0-4.2 0.5-8.5 1.3-12.7 3.9-19 23.4-38.2 49.2-38.1 116.4 0.5 232.8 0.3 349.3 0.3zM511.8 144.2c-125.5 0.2-223.8 99.3-223.5 225.1 0.3 124 99.8 222.6 224.1 222.5 121.4-0.1 223.4-95.8 223.4-224.6-0.1-124.5-99.6-223.2-224-223z m-0.1 47.7c95.6-0.4 176.2 79.6 176.4 175.3 0.3 96.3-79.6 176.5-175.9 176.8-94.7 0.3-175.3-79.2-176.4-172.8-1.2-98.2 79.9-179.4 175.9-179.3zM768.2 509.2c0 27.8 23.3 50.8 51.3 50.7 28-0.1 51.1-23.5 50.9-51.7-0.2-27.6-23.4-50.5-51.2-50.5-28.2 0-51 23.1-51 51.5z"  horiz-adv-x="1024" />

    
    <glyph glyph-name="close" unicode="&#58888;" d="M560.9 384l389 389c13.4 13.4 13.4 35.4 0 48.9-13.4 13.4-35.4 13.4-48.9 0l-389-389-389 389c-13.4 13.4-35.4 13.4-48.9 0-13.4-13.4-13.4-35.4 0-48.9l389-389-389-389c-13.4-13.4-13.4-35.4 0-48.9 13.4-13.4 35.4-13.4 48.9 0l389 389 389-389c13.4-13.4 35.4-13.4 48.9 0 13.4 13.4 13.4 35.4 0 48.9l-389 389z"  horiz-adv-x="1024" />

    
    <glyph glyph-name="close_msg" unicode="&#58889;" d="M512 782c53.8 0 105.9-10.5 154.9-31.3 47.4-20 90-48.7 126.5-85.3 36.6-36.6 65.3-79.1 85.3-126.5 20.7-49 31.3-101.2 31.3-154.9s-10.5-105.9-31.3-154.9c-20-47.4-48.7-90-85.3-126.5-36.6-36.6-79.1-65.3-126.5-85.3-49-20.8-101.1-31.3-154.9-31.3s-105.9 10.5-154.9 31.3c-47.4 20-90 48.7-126.5 85.3-36.6 36.6-65.3 79.1-85.3 126.5-20.8 49-31.3 101.1-31.3 154.9s10.5 105.9 31.3 154.9c20 47.4 48.7 90 85.3 126.5 36.6 36.6 79.1 65.3 126.5 85.3 49 20.8 101.1 31.3 154.9 31.3m0 50C264.6 832 64 631.4 64 384s200.6-448 448-448 448 200.6 448 448S759.4 832 512 832zM352.9 224.9c-9.7 9.7-9.7 25.6 0 35.4l282.8 282.8c9.7 9.7 25.6 9.7 35.4 0 9.7-9.7 9.7-25.6 0-35.4L388.3 224.9c-9.8-9.7-25.7-9.7-35.4 0zM352.9 543.1c9.7 9.7 25.6 9.7 35.4 0l282.8-282.8c9.7-9.7 9.7-25.6 0-35.4-9.7-9.7-25.6-9.7-35.4 0L352.9 507.7c-9.7 9.8-9.7 25.7 0 35.4z"  horiz-adv-x="1024" />

    
    <glyph glyph-name="delete" unicode="&#58890;" d="M64 681.2v9.7c0.1 0.2 0.4 0.4 0.4 0.6 2 16 16.5 28.8 35.3 28.6 66.7-0.4 133.4-0.1 200.1-0.1h5c0 11.8 0.2 23.1 0 34.4-0.5 30.8 20.2 61.6 49.2 72.2 6.2 2.3 12.8 3.6 19.3 5.3h278.5c0.7-0.2 1.3-0.6 2-0.7 34.6-5.3 61.3-32.4 65.1-67.2 1.4-13.1 0.8-26.3 1-39.5v-4.6h206.3c11.5 0 21.1-4.2 27.6-13.6 3-4.3 4.3-9.8 6.4-14.8v-9.7c-0.2-0.3-0.5-0.6-0.6-0.9-2.3-14.5-15.4-28.1-35-27.7-30.2 0.6-60.5 0.1-90.7 0.1h-4.6v-5.8c0-194.7 0-389.4-0.1-584.1 0-7.7-0.3-15.5-1.5-23.1-9.7-61.5-61.6-104.5-121.5-104.3-101.9 0.5-203.8 0.1-305.7 0.1-29.2 0-58.5-0.5-87.7 0.2-37 0.8-67.2 16.3-90.5 44.9-19.1 23.4-27.5 50.8-27.5 80.9V647.3v5.4H98.1c-14.7 0-25.1 6.9-31.2 20.1-1.3 2.7-2 5.6-2.9 8.4z m196.7-27.9v-512.6c0-26.4-0.1-52.8 0-79.1 0.1-33.6 23.6-58.1 56-58.1 130.2-0.1 260.3 0 390.5 0 10.1 0 19.8 2.2 28.5 7.5 18.9 11.7 27.6 29 27.6 50.9V649c0 1.3-0.1 2.7-0.2 4.2-167.5 0.1-334.7 0.1-502.4 0.1z m394 66.8v32c0 9-4.3 13.3-13.3 13.3H383.1c-9 0-13.2-4.2-13.2-13.3v-28.4c0-1.2 0.1-2.4 0.2-3.6h284.6zM544.9 317.5v-177.6c0-14.8-6.2-26-19.9-32.2-18.9-8.7-41.2 3.1-45.1 23.6-0.5 2.7-0.8 5.4-0.8 8.1V495.8c0 14.5 6.1 25.7 19.3 31.8 21.1 9.9 44.6-4.8 46.3-28.4 0.1-1.9 0.1-3.7 0.1-5.6 0.1-58.6 0.1-117.3 0.1-176.1zM698.1 317.9v-177.3c0-11.5-3.5-21.3-12.6-28.6-9.8-7.8-20.6-9.5-32.2-4.9-11.4 4.6-18 13.3-20.3 25.2-0.5 2.7-0.6 5.4-0.6 8.2V495c0 15.9 8 28.5 21.4 33.5 20.2 7.7 42.7-6.7 44.2-28.3 0.2-2.4 0.2-4.7 0.2-7.1-0.1-58.3-0.1-116.7-0.1-175.2zM391.7 317.1v-176.5c0-10.1-2.8-19.2-10.2-26.3-8.7-8.3-19.1-11.7-30.9-8.3-12.7 3.6-20.3 12.5-23.7 25-0.8 3.2-1.1 6.6-1.1 10-0.1 118.1 0.1 236.1-0.2 354.2 0 17.7 10.9 29.8 21.8 33.7 19.9 7.2 41.6-6.4 43.6-27.3 0.3-3.3 0.5-6.7 0.5-10 0.2-58.3 0.2-116.4 0.2-174.5z"  horiz-adv-x="1024" />

    
    <glyph glyph-name="dislike" unicode="&#58892;" d="M250.4 781.1l1.4-0.2h4.1l518 0.2h4.9c9.5-0.8 18.6-4 26.7-9.3 9.3-6.2 16.6-14.7 21.7-25.3l1.5-3.2 0.9-1.3 79.6-366.1v-0.9c0-1.6 0.1-3.7 0.3-6v-0.2c1-14.2-2.2-28-9.4-40-10.9-18.2-28.8-29.2-49.2-30l-3.1-0.1-2-0.3-196.7-0.2c-18.1 0-35.4-8.7-46.1-23.3-10.8-14.6-14-33.7-8.6-51 10.9-35.4 16.5-72.4 16.5-110 0-20.5-1.7-41.2-5.1-61.6l-3.6-16.3c-3.1-13.8-10.5-26.3-21-35.1-7.2-6-19.3-13.3-35.8-13.3-32.3 0-58.6 28.3-58.6 63 0 1.6 0.1 3.5 0.3 5.7l0.3 2.9-0.1 2.9c-3.9 146.3-113 264.5-253.8 274.9l-1.8 0.1h-1.8l-115.8 0.3-0.3 443.4 131 0.1h4.1l1.5 0.2m0.1 50.3c-1.9 0-3.8-0.2-5.6-0.5l-137.8-0.1c-1.9 0.3-3.9 0.5-5.9 0.5-20.6 0-37.3-17.3-37.3-38.8l0.3-466.5c0-21.4 16.7-38.8 37.3-38.8 1.5 0 3 0.1 4.5 0.3l123.9-0.3c114-8.5 204.3-106.4 207.5-226.4-0.3-3.3-0.5-6.7-0.5-10.2 0-62.4 48.6-113 108.6-113 51.5 0 94.6 37.4 105.7 87.6l0.5-0.1c6.1 28.6 9.4 58.3 9.4 88.8 0 43.6-6.6 85.5-18.7 124.8-1.5 4.7 2 9.5 7 9.5l198.2 0.2c1.9 0 3.8 0.2 5.6 0.5 35.6 1.5 69.8 20.5 90 54.4 12.9 21.6 18 45.7 16.3 69.2-0.3 4.3 0 8.7-1.1 13.1l-80.6 370.5c-1.2 4.4-3 8.4-5.4 12-8.6 18-21.7 33.8-39.2 45.4-18.3 12.1-38.8 17.8-59 17.8h-0.2v-0.2l-518-0.2c-1.8 0.3-3.6 0.5-5.5 0.5zM212 793.9h50v-480h-50z"  horiz-adv-x="1024" />

    
    <glyph glyph-name="edit" unicode="&#58893;" d="M943.4 691l-126 123.4c-10.3 10.7-24.6 16.8-39.4 16.8-14.9 0-29.1-6.1-39.5-16.8l-92.9-92.5-39.9-39-330.1-331.3c-7.8-8.3-13.1-18.6-15.2-29.7L219 119.3c-1.4-7.3 0.9-14.8 6.1-20.1 5.3-5.2 12.8-7.5 20.1-6.1l203.9 39.6c11.3 1.8 21.7 7.1 29.8 15.2l464.5 464c10.5 10.5 16.4 24.7 16.4 39.6 0 14.8-5.9 29-16.4 39.5zM284.5 157.4l27.1 134.7 108.4-108-135.5-26.7z m181.6 58L341.4 338.5 645.6 644l126.2-124.6-305.7-304z m345.4 343.8l-125.1 124 92.9 92.8 124.8-124.6-92.6-92.2zM959.8 319.5c0 15.4-13.1 28.1-28.6 28.1-15.5 0-28-12.5-28-28v-326.9h-783V775.3h412.1c15.1 0.9 27.1 12.9 28 28-0.9 15.1-12.9 27.1-28 28H120.2c-30.8-0.2-55.8-25.1-56-55.9v-782.5c0-30.9 25.1-55.9 56-55.9h783.6c14.8 0 29.1 5.9 39.6 16.4 10.5 10.5 16.4 24.7 16.4 39.5V319.5z"  horiz-adv-x="1024" />

    
    <glyph glyph-name="fans" unicode="&#58894;" d="M483.4 832.4c-122 0-219.6-97.6-219.6-219.5 0-122 97.6-219.5 219.6-219.5C603.3 393.4 703 491 703 612.9c-0.1 122-99.7 219.5-219.6 219.5z m0-392.3c-95.5 0-172.8 77.2-172.8 172.8 0 95.5 77.3 172.8 172.8 172.8 46.8 0 89.5-18.3 124-52.9 32.5-32.5 48.8-75.2 48.8-119.9 0-95.5-77.3-172.8-172.8-172.8zM481.3 441.2C213 441.2 82.9 284.7 82.9-38.5c0-16.3 12.2-24.4 24.4-24.4 10.2 0 22.4 8.1 22.4 24.4 0 294.7 111.8 430.9 351.7 430.9 14.2 0 24.4 10.2 24.4 24.4-0.1 16.2-12.3 24.4-24.5 24.4zM902.2 294.8c-42.7 44.7-117.9 50.8-170.8 12.2-48.8 38.6-126 32.5-170.8-12.2-50.8-50.8-50.8-136.2 2-189l154.5-142.3c4.1-4.1 10.2-6.1 16.3-6.1 4.1 0 10.2 0 14.2 6.1l154.5 144.3c50.9 50.8 50.9 136.2 0.1 187z m-32.6-156.5L731.4 8.2 593.1 136.3c-16.3 16.3-24.4 36.6-24.4 61s8.1 44.7 24.4 61c16.3 16.3 38.6 26.4 61 26.4 26.4 0 44.7-8.1 59-26.4 2-4.1 8.1-6.1 14.2-6.1 8.1 0 16.3 4.1 20.3 8.1 34.6 30.5 89.4 30.5 122 0 32.6-36.6 32.6-89.5 0-122z"  horiz-adv-x="1024" />

    
    <glyph glyph-name="gywm" unicode="&#58895;" d="M512 782c53.7 0 105.8-10.5 154.9-31.3 47.4-20 90-48.8 126.5-85.3 36.6-36.6 65.3-79.1 85.3-126.5 20.7-49 31.3-101.1 31.3-154.9 0-53.7-10.5-105.8-31.3-154.9-20-47.4-48.8-90-85.3-126.5-36.6-36.6-79.1-65.3-126.5-85.3C617.8-3.5 565.7-14 512-14s-105.8 10.5-154.9 31.3c-47.4 20-90 48.8-126.5 85.3-36.6 36.6-65.3 79.1-85.3 126.5C124.5 278.2 114 330.3 114 384s10.5 105.8 31.3 154.9c20 47.4 48.8 90 85.3 126.5 36.6 36.6 79.1 65.3 126.5 85.3C406.2 771.5 458.3 782 512 782m0 50C264.6 832 64 631.4 64 384s200.6-448 448-448 448 200.6 448 448S759.4 832 512 832zM574 506.4c-7.7-9.5-19.3-14.6-31.4-15-9.9 0-19.3 3.9-25.8 11.2-6.8 7.2-10.4 16.8-9.9 26.6-0.4 12 4.3 24.1 12.5 32.7 15.9 17.2 42.5 18.9 57.2 3.4 6.9-6.9 10.3-16.3 10.3-26.2 0.4-12.1-4.3-23.7-12.9-32.7zM523.2 252c5.2 3.9 12.5 10.3 22.8 20.2l9 8.2 27.6-26.7-9.5-9c-23.7-22-40.5-35.7-51.7-42.2-12.5-7.3-22.8-10.3-31.4-10.3-8.6-0.4-16.8 3-22.8 9.5-5.9 6.4-9.1 14.9-8.6 23.7 0 21.1 11.2 68 34.4 143.8-3.9-3.4-9.5-9-18.1-16.8l-7.7-7.8-30.1 23.2 9 10.3c17.2 18.9 33.1 32.7 47.8 40.9 26.3 15.1 48.2 16.8 60.7 6.9 5.6-4.7 8.6-11.6 8.6-18.9 0-4.3-1.3-13.3-16.4-64.1-15.4-51.3-21.9-77.5-23.6-90.9z"  horiz-adv-x="1024" />

    
    <glyph glyph-name="gz" unicode="&#58896;" d="M880.9 699C779.4 799 617.5 802.6 511.7 707.2 405.9 802.6 244 799 142.5 699 92.3 649.5 64 581.9 64 511.4s28.3-138.1 78.5-187.7l309.3-306.5c15.8-16.1 37.4-25.1 59.9-25.1s44.1 9.1 59.9 25.1l309.3 306.2c50.3 49.6 78.6 117.2 78.6 187.8 0 70.6-28.3 138.3-78.6 187.8z m-40-335.9L531.6 56.6c-5.3-5.3-12.4-8.3-19.9-8.3-7.5 0-14.6 3-19.9 8.3L182.2 363.1c-39.6 39.1-62 92.5-62 148.2 0 55.7 22.3 109.1 62 148.2 80.6 78.5 208.3 80.5 291.4 4.8l38.1-32.7 37.8 32.7c83.4 75.4 211.2 72.7 291.4-6.2 39.2-39.1 61.3-92.2 61.3-147.5-0.1-55.3-22.1-108.4-61.3-147.5z m0 0M322.7 636.3c-31.6 0-61.8-12.5-84.1-34.8-22.3-22.3-34.8-52.6-34.8-84.1 0-7.7 6.3-14 14-14s14 6.3 14 14c0 24.1 9.6 47.3 26.6 64.3 17.1 17.1 40.2 26.6 64.3 26.6 7.7 0 14 6.3 14 14 0 7.8-6.2 14-14 14z m0 0"  horiz-adv-x="1024" />

    
    <glyph glyph-name="qa" unicode="&#58897;" d="M889.3 771c11.4 0 20.7-9.3 20.7-20.6v-597.9c0-4.9-1.5-6.1-2.5-7-2.8-2.3-9.1-4.8-18.2-4.8H645l-14.8-15.9-118-126.5-118.6 126.6-14.8 15.8H134.7c-11.4 0-16.8 3.7-18.1 4.8-1.1 0.9-2.6 2.1-2.6 7v598c0 11.3 9.2 20.5 20.6 20.5h754.7m0 50H134.6c-39 0-70.6-31.6-70.6-70.5v-598c0-39 31.7-61.8 70.7-61.8h222.4L478.7-39c8.8-8.9 20.9-13.9 33.5-14 12.6 0 24.6 5 33.5 13.9l121 129.7h222.6c39.2 0 70.7 22.8 70.7 61.8v598c-0.1 39-31.7 70.6-70.7 70.6zM488.4 255.6c0 13 10.5 23.6 23.5 23.6h0.1c13 0 23.6-10.4 23.6-23.5V232c0-13-10.5-23.5-23.5-23.5h-0.1c-6.3 0-12.3 2.5-16.7 6.9-4.4 4.4-6.9 10.4-6.9 16.7v23.5zM562.4 383.4c-5-1.9-9.9-4-14.7-6.4l0.9 0.4c-8.2-3.7-13.4-11.8-13.4-20.8v-0.2c-0.1-4 0-8.2-0.8-12.1-2.5-11.2-13-18.9-24.5-18-12 1-21.4 10.9-21.6 22.9-1.3 33.2 12.6 57.4 42.7 71.8 3.2 1.7 7.3 3.5 11.5 5.1l0.9 0.3c40.7 14.5 66.3 54.9 61.9 97.9-4.7 43.1-38 77.5-80.9 83.5-26.5 3.5-53.2-4.3-73.5-21.6-20.3-17.3-32.4-42.3-33.2-69v-0.1c0-3.1-0.3-6.2-1.1-9.2-3.2-11.1-14-18.2-25.5-16.7h0.1c-11.8 1.5-20.6 11.4-20.6 23.3v0.7c0.4 34.6 11.3 65.8 34.4 91.5 38 42.4 85.8 58.4 140.9 44.5 55.6-14.1 90.2-51.2 103.6-107.3 2.3-9.6 2.7-19.6 4-29.4-1.3-58.8-36.5-109.8-91.1-131.1z"  horiz-adv-x="1024" />

    
    <glyph glyph-name="mine" unicode="&#58898;" d="M495.6 334.5c41.4 0 85.3-6.1 126.8-17.6 33.7-9.4 64.8-22.1 85.3-34.8l0.4-0.2 0.4-0.2c53.7-32.1 98.3-72.9 132.6-121.1 31.8-44.7 54-94.9 66.2-149.3H117c9.3 40.5 24.2 79.1 44.4 115 22.1 39.2 50 74.3 82.9 104.4 32.8 30 69.8 54.1 109.8 71.7 40.9 18 84.2 28.8 128.7 32h0.7l0.6 0.1h11.5m0 50c-5.3 0-11.2 0-16.5-0.5-204-14.9-374-170-414.4-378.3-2.1-10.6 0-23.4 8.5-31.9 6.4-8.5 17-12.8 27.6-12.8h822.4c10.6 0 21.2 4.3 27.6 12.8 6.4 8.5 10.6 19.1 8.5 31.9C933.8 141.7 853 253.3 734 324.5c-45 28.1-137.4 60-238.4 60zM512 756.9c46.3 0 89.7-18 122.4-50.7s50.7-76.2 50.7-122.4c0-46.3-18-89.7-50.7-122.4s-76.2-50.7-122.4-50.7-89.7 18-122.4 50.7-50.7 76.2-50.7 122.4c0 46.3 18 89.7 50.7 122.4s76.1 50.7 122.4 50.7m0 50c-123.3 0-223.1-99.9-223.1-223.1 0-123.3 99.9-223.1 223.1-223.1s223.1 99.9 223.1 223.1C735.1 707 635.3 806.9 512 806.9z"  horiz-adv-x="1024" />

    
    <glyph glyph-name="jf" unicode="&#58899;" d="M511.8 782c100.5 0 194.4-18.6 264.6-52.3 33.6-16.1 60.3-35.3 77.2-55.5 14-16.8 21.1-34 21.1-51.2 0-17.2-7.1-34.5-21.1-51.2-16.8-20.2-43.5-39.4-77.2-55.5-70.3-33.7-164.2-52.3-264.6-52.3-100.5 0-194.4 18.6-264.6 52.3-33.6 16.1-60.3 35.3-77.2 55.5-14 16.8-21.1 34-21.1 51.2 0 17.2 7.1 34.5 21.1 51.2 16.8 20.2 43.5 39.4 77.2 55.5 70.2 33.7 164.2 52.3 264.6 52.3m0 50C404 832 302.4 811.7 225.5 774.8 143.9 735.7 98.9 681.7 98.9 623c0-58.7 45-112.7 126.6-151.9 76.8-36.9 178.5-57.2 286.2-57.2 107.8 0 209.4 20.3 286.2 57.2 81.7 39.2 126.6 93.1 126.6 151.9 0 58.7-45 112.7-126.6 151.9C721.3 811.7 619.6 832 511.8 832zM867.5 379.3c0-15.4-6.5-30.9-19.3-46.3-16.1-19.3-41.9-37.8-74.6-53.5-69.2-33.2-162-51.5-261.3-51.5-99.3 0-192.1 18.3-261.3 51.5-32.7 15.7-58.4 34.2-74.6 53.5-12.8 15.4-19.3 30.9-19.3 46.3 0 1.4 0.1 2.7 0.2 4.1 1.2 16.6-12.2 30.6-28.8 30.6-15.2 0-27.8-11.8-28.8-27-0.2-2.5-0.3-5.1-0.3-7.7 0-58.7 45-112.7 126.6-151.9 76.8-36.9 178.5-57.2 286.2-57.2 107.8 0 209.4 20.3 286.2 57.2C880 266.6 925 320.5 925 379.3c0 2.6-0.1 5.1-0.3 7.7-1 15.2-13.6 27-28.8 27-16.6 0-30.1-14-28.8-30.6 0.3-1.4 0.4-2.7 0.4-4.1zM866.8 145c0-15.4-6.5-30.9-19.3-46.3-16.1-19.3-41.9-37.8-74.6-53.5-69.2-33.2-162-51.5-261.3-51.5-99.3 0-192.1 18.3-261.3 51.5-32.7 15.7-58.4 34.2-74.6 53.5-12.8 15.4-19.3 30.9-19.3 46.3 0 1.4 0.1 2.7 0.2 4.1 1.2 16.6-12.2 30.6-28.8 30.6-15.2 0-27.8-11.8-28.8-27-0.2-2.5-0.3-5.1-0.3-7.7 0-58.7 45-112.7 126.6-151.9 76.8-36.9 178.5-57.2 286.2-57.2 107.8 0 209.4 20.3 286.2 57.2 81.6 39.2 126.6 93.1 126.6 151.9 0 2.6-0.1 5.1-0.3 7.7-1 15.2-13.6 27-28.8 27-16.6 0-30.1-14-28.8-30.6 0.4-1.3 0.4-2.7 0.4-4.1z"  horiz-adv-x="1024" />

    
    <glyph glyph-name="jf-play" unicode="&#58913;" d="M517.1 770.6c53.7 0 105.9-10.5 154.9-31.3 47.4-20 90-48.7 126.5-85.3 36.6-36.6 65.3-79.1 85.3-126.5 20.7-49 31.3-101.2 31.3-154.9 0-53.8-10.5-105.9-31.3-154.9-20-47.4-48.7-90-85.3-126.5-36.6-36.6-79.1-65.3-126.5-85.3-49-20.7-101.2-31.3-154.9-31.3s-105.9 10.5-154.9 31.3c-47.4 20-90 48.7-126.5 85.3-36.6 36.6-65.3 79.1-85.3 126.5-20.7 49-31.3 101.2-31.3 154.9s10.5 105.9 31.3 154.9c20 47.4 48.7 90 85.3 126.5 36.6 36.6 79.1 65.3 126.5 85.3 49.1 20.8 101.2 31.3 154.9 31.3m0 50c-247.4 0-448-200.6-448-448s200.6-448 448-448 448 200.6 448 448-200.6 448-448 448zM436.2 544.5l268.3-171.7-268.3-171.7V544.5M410.3 614c-13.2 0-24.1-9.4-24.1-33.2v-416c0-23.6 11.7-33.6 24.9-33.6 5.7 0 11.7 1.9 17.1 5.4l330.1 211.2c19 13.2 18.5 37.8 0 49.9L428.2 609c-6 3.2-12.2 5-17.9 5z"  horiz-adv-x="1024" />

    
    <glyph glyph-name="jf-row" unicode="&#58914;" d="M684.7 384L282.8 786.4c-10.4 10.4-10.4 27.4 0 37.8 10.4 10.4 27.4 10.4 37.8 0l420.6-421.1c5.2-5.2 7.8-12.2 7.8-19.1 0-6.9-2.6-13.8-7.8-19.1L320.6-56.2c-10.4-10.4-27.4-10.4-37.8 0-10.4 10.4-10.4 27.4 0 37.8L684.7 384z"  horiz-adv-x="1024" />

    
    <glyph glyph-name="like" unicode="&#58915;" d="M545.5 781.4c16.6 0 28.6-7.2 35.8-13.3 10.5-8.8 18-21.3 21-35.1l3.6-16.3c3.4-20.4 5.1-41.1 5.1-61.6 0-37.6-5.6-74.6-16.5-110-5.4-17.3-2.1-36.4 8.6-51 10.7-14.6 28-23.3 46.1-23.3l196.7-0.2 2-0.3 3.1-0.1c20.4-0.9 38.3-11.8 49.2-30 7.1-12 10.4-25.8 9.4-40v-0.2c-0.2-2.3-0.2-4.4-0.3-6v-0.9L829.7 27l-0.9-1.3-1.5-3.2c-5-10.6-12.3-19.1-21.7-25.3-8.1-5.3-17.2-8.5-26.7-9.3H774l-518 0.1h-4.2l-1.4-0.2-1.4 0.2h-4.1l-131 0.1 0.3 443.4 115.8 0.3h1.8l1.8 0.1c140.8 10.5 249.9 128.7 253.8 274.9l0.1 2.9-0.3 2.9c-0.2 2.2-0.3 4-0.3 5.7 0 34.8 26.3 63.1 58.6 63.1m0 50c-60 0-108.6-50.6-108.6-113 0-3.5 0.2-6.9 0.5-10.2-3.2-120-93.5-217.9-207.5-226.4l-123.9-0.4c-1.5 0.2-3 0.3-4.5 0.3-20.6 0-37.3-17.4-37.3-38.8l-0.3-466.5c0-21.5 16.7-38.8 37.3-38.8 2 0 4 0.2 5.9 0.5l137.8-0.1c1.8-0.3 3.7-0.5 5.6-0.5 1.9 0 3.7 0.2 5.5 0.5l518-0.2v-0.2h0.2c20.2 0 40.7 5.7 59 17.8 17.5 11.6 30.6 27.4 39.2 45.4 2.4 3.6 4.2 7.6 5.4 12l80.6 370.5c1.1 4.4 0.8 8.8 1.1 13.1 1.7 23.5-3.4 47.6-16.3 69.2-20.2 33.9-54.4 52.9-90 54.4-1.8 0.3-3.7 0.5-5.6 0.5l-198.2 0.2c-5 0-8.5 4.8-7 9.5 12.1 39.3 18.7 81.2 18.7 124.8 0 30.5-3.3 60.2-9.4 88.8l-0.5-0.1C640.1 794 597 831.4 545.5 831.4zM212 455h50v-480h-50z"  horiz-adv-x="1024" />

    
    <glyph glyph-name="jp-del" unicode="&#58916;" d="M723.9 477.7c-11.6 11.6-30.5 11.6-42.2 0l-55.6-55.6-55.6 55.6c-11.6 11.6-30.5 11.6-42.2 0-11.6-11.6-11.6-30.5 0-42.2L584 380l-54.6-54.6c-11.6-11.6-11.6-30.5 0-42.2 11.6-11.6 30.5-11.6 42.2 0l54.6 54.6 54.6-54.6c11.6-11.6 30.5-11.6 42.2 0 11.6 11.6 11.6 30.5 0 42.2L668.3 380l55.6 55.6c11.7 11.6 11.7 30.5 0 42.1z m0 0M887.7 669.1H361.1c-7.4 3.1-286.4-263.6-286.4-263.6l-3.8-3.8c-3.3-3.3-5.2-7.5-5.8-12-2.5-8.6-1.1-17.1 4.5-22.7L337 98.9h550.6c39.9 0 72.3 31.5 72.3 70.4V598.7c0.1 38.9-32.3 70.4-72.2 70.4zM908.3 206c0-32.2-29.9-58.4-66.7-58.4H376c-0.2 0.3-0.5 0.5-0.8 0.8L138.1 385.7l234.7 234.7h468.9c36.8 0 66.7-26.1 66.7-58.4v-356z m0 0"  horiz-adv-x="1024" />

    
    <glyph glyph-name="jfsc" unicode="&#58917;" d="M722 767.6c21-0.1 41.5-6.1 59.2-17.5 17.7-11.3 31.8-27.4 40.7-46.5l0.1-0.3 0.1-0.3L899 543.7c6.6-13.8 10.2-29.1 10.4-44.4v-6c0.3-16.4-2.6-32.5-8.6-47.8s-14.8-29.1-26.2-40.9c-11.4-11.8-24.8-21.2-39.9-27.8-14.9-6.5-30.7-10-46.9-10.4-38.6 0.4-74.7 19.4-96.8 51.1l-41.2 59-40.8-59.1c-22-31.9-58.3-50.9-97-50.9s-75 19-97 50.9l-40.6 58.7-41.4-58.2c-4.8-6.7-10.2-13-16.1-18.6-22.2-21.1-51.4-32.8-82.1-32.8-3.1 0-6.2 0.1-9.3 0.4-31.3 4.3-59.8 19.7-80.4 43.7-20.8 24.2-31.9 55.1-31.2 87.1v1c0 15.6 3.6 31.4 10.4 45.4L201 703l0.1 0.3 0.1 0.3c8.9 19.1 23 35.2 40.7 46.5 17.7 11.3 38.2 17.4 59.2 17.5H722m0.1 50h-421c-62.3-0.3-118.8-36.4-145.1-92.9L79.3 565.9C69.2 545 64 522 64 498.8c-2-91.6 65.5-170 156.4-181.6 4.9-0.4 9.7-0.6 14.6-0.6 43.2 0 85 16.6 116.6 46.6 8.3 7.9 15.7 16.5 22.4 25.9 31.4-45.4 83-72.5 138.2-72.5 55.2 0 106.8 27.1 138.2 72.5 31.5-45.2 83.1-72.2 138.2-72.5 46.3 0.9 90.3 20.1 122.5 53.5 32.1 33.4 49.7 78.1 48.8 124.4v5.2c-0.2 22.8-5.4 45.3-15.3 65.8l-77 159.4c-26.7 56.3-83.2 92.5-145.5 92.7zM650.2 255.4c38.3-31.3 86.7-49.2 137.3-49.5h2.3c10 0 32.8 1.1 60.1 9V112.7c0.5-29.3-10.5-57.1-30.9-78.2-20.3-21-47.5-32.9-76.7-33.5H281.6c-29.1 0.7-56.3 12.5-76.6 33.5-20.4 21.1-31.4 48.8-30.9 78.1V214.8c13.5-4.1 27.4-6.9 41.4-8.3h0.6c6.3-0.5 12.6-0.8 18.9-0.8 51 0 99.7 17.5 138.8 49.6 38.5-31.6 87.2-49.5 138.3-49.5 50.9 0 99.6 17.9 138.1 49.6m-0.1 72.9c-31.4-45.4-83-72.5-138.2-72.5s-106.8 27.1-138.2 72.5a173.6 173.6 0 0 0-22.4-26c-31.6-30-73.4-46.6-116.6-46.6-4.8 0-9.7 0.2-14.6 0.6-36 3.5-69.9 18.8-96.3 43.6v-186.7c-1.3-88.1 68.9-160.7 157-162.4h461.8c88.2 1.6 158.5 74.3 157.1 162.5V298.8c-44-41.1-100.3-43-110.1-43h-1.5c-54.9 0.3-106.5 27.3-138 72.5z"  horiz-adv-x="1024" />

    
    <glyph glyph-name="menu" unicode="&#58918;" d="M64 732.3c0-22.6 18.3-40.9 40.9-40.9 22.6 0 40.9 18.3 40.9 40.9 0 22.6-18.3 40.9-40.9 40.9-22.6 0-40.9-18.3-40.9-40.9zM64 384c0-22.6 18.3-40.9 40.9-40.9 22.6 0 40.9 18.3 40.9 40.9 0 22.6-18.3 40.9-40.9 40.9-22.6 0-40.9-18.3-40.9-40.9zM64 35.7c0-22.6 18.3-40.9 40.9-40.9 22.6 0 40.9 18.3 40.9 40.9 0 22.6-18.3 40.9-40.9 40.9-22.6-0.1-40.9-18.3-40.9-40.9zM935 706.8H289.9c-13.7 0-25 11.3-25 25v1.1c0 13.7 11.3 25 25 25H935c13.8 0 25-11.3 25-25v-1.1c0-13.8-11.2-25-25-25zM935 358.5H289.9c-13.7 0-25 11.2-25 25v1.1c0 13.8 11.3 25 25 25H935c13.8 0 25-11.2 25-25v-1.1c0-13.8-11.2-25-25-25zM935 10.1H289.9c-13.7 0-25 11.2-25 25v1.1c0 13.8 11.3 25 25 25H935c13.8 0 25-11.3 25-25v-1.1c0-13.7-11.2-25-25-25z"  horiz-adv-x="1024" />

    
    <glyph glyph-name="newAdd" unicode="&#58920;" d="M512 782c51.7 0 102.1-9.8 149.8-29.1 49.3-20 93.6-49.4 131.6-87.4 38-38 67.4-82.3 87.4-131.6C900.2 486.1 910 435.7 910 384s-9.8-102.1-29.1-149.8c-20-49.3-49.4-93.6-87.4-131.6-38-38-82.3-67.4-131.6-87.4C614.1-4.2 563.7-14 512-14s-102.1 9.8-149.8 29.1c-49.3 20-93.6 49.4-131.6 87.4-38 38-67.4 82.3-87.4 131.6C123.8 281.9 114 332.3 114 384s9.8 102.1 29.1 149.8c20 49.3 49.4 93.6 87.4 131.6s82.3 67.4 131.6 87.4C409.9 772.2 460.3 782 512 782m0 50c-114.7 0-229.3-43.7-316.8-131.2-175-175-175-458.6 0-633.6C282.7-20.3 397.3-64 512-64s229.3 43.7 316.8 131.2c175 175 175 458.6 0 633.6C741.3 788.3 626.7 832 512 832zM512 159c-13.8 0-25 11.3-25 25V584c0 13.8 11.3 25 25 25s25-11.2 25-25v-400c0-13.8-11.2-25-25-25zM287 384c0 13.8 11.3 25 25 25h400c13.7 0 25-11.3 25-25 0-13.8-11.3-25-25-25H312c-13.7 0-25 11.2-25 25z"  horiz-adv-x="1024" />

    
    <glyph glyph-name="share" unicode="&#58921;" d="M935.7 375.3c-13.4 0-24.3-10.9-24.3-24.3v-256.8c0-60.4-49.1-109.6-109.5-109.6H222.1c-60.4 0-109.5 49.1-109.5 109.5V673.9c0 60.4 49.1 109.5 109.4 109.5h176.2c13.4 0 24.3 10.9 24.3 24.3S411.6 832 398.2 832H222c-42.2 0-81.9-16.4-111.8-46.3C80.4 755.8 64 716.1 64 673.9v-579.8c0-42.2 16.4-81.9 46.3-111.8 29.9-29.9 69.6-46.3 111.8-46.3h579.8c87.2 0 158.1 71 158.1 158.2V351c0 13.4-10.9 24.3-24.3 24.3zM899.3 720.5c-75.5 0-148.8-14.8-217.8-44C614.9 648.4 555 608 503.6 556.6c-51.4-51.4-91.7-111.2-119.9-177.8-29.2-69-44-142.3-44-217.8 0-13.4 10.9-24.3 24.3-24.3s24.3 10.9 24.3 24.3c0 281.7 229.2 510.9 510.9 510.9 13.4 0 24.3 10.9 24.3 24.3 0.1 13.4-10.8 24.3-24.2 24.3zM930.6 729.9L707.5 819.1c-2.7 1-5.4 1.4-8.2 1.4-10 0-18.8-6-22.6-15.3-4.9-12.2 0.7-26 12.8-31.3l223.1-89.2c2.7-1 5.4-1.4 8.2-1.4 10 0 18.8 6 22.6 15.3 4.9 12.2-0.7 26-12.8 31.3zM945.3 713.4c-2.1 8.5-8.6 15.2-17 17.5-2.1 0.6-4.3 0.9-6.5 0.9-6.5 0-12.5-2.5-17.1-7.1L735.1 559.9c-6.3-6-8.9-15-6.8-23.5 2.1-8.5 8.6-15.2 17-17.5 2.1-0.6 4.3-0.9 6.5-0.9 6.5 0 12.5 2.5 17.1 7l169.5 164.9c6.4 6 9 15 6.9 23.5z"  horiz-adv-x="1024" />

    
    <glyph glyph-name="qa-close" unicode="&#58922;" d="M512 384m-448 0a448 448 0 1 1 896 0 448 448 0 1 1-896 0ZM352.9 224.9c-9.7 9.7-9.7 25.6 0 35.4l282.8 282.8c9.7 9.7 25.6 9.7 35.4 0 9.7-9.7 9.7-25.6 0-35.4L388.3 224.9c-9.8-9.7-25.7-9.7-35.4 0zM352.9 543.1c9.7 9.7 25.6 9.7 35.4 0l282.8-282.8c9.7-9.7 9.7-25.6 0-35.4-9.7-9.7-25.6-9.7-35.4 0L352.9 507.7c-9.7 9.8-9.7 25.7 0 35.4z"  horiz-adv-x="1024" />

    
    <glyph glyph-name="search" unicode="&#58923;" d="M478.6 782.1c49.2 0 96.8-9.6 141.7-28.6 43.3-18.3 82.3-44.6 115.7-78 33.4-33.4 59.7-72.4 78-115.7 19-44.8 28.6-92.5 28.6-141.7 0-49.2-9.6-96.8-28.6-141.7-18.3-43.3-44.6-82.3-78-115.7-33.4-33.4-72.4-59.7-115.7-78-44.8-19-92.5-28.6-141.7-28.6-49.2 0-96.8 9.6-141.7 28.6-43.3 18.3-82.3 44.6-115.7 78-33.4 33.4-59.7 72.4-78 115.7-19 44.8-28.6 92.5-28.6 141.7 0 49.2 9.6 96.8 28.6 141.7 18.3 43.3 44.6 82.3 78 115.7 33.4 33.4 72.4 59.7 115.7 78 44.9 19 92.6 28.6 141.7 28.6m0 50c-228.6 0-414-185.4-414-414 0-228.7 185.4-414 414-414 228.7 0 414 185.4 414 414 0.1 228.6-185.3 414-414 414zM952.1-56.2l-0.6-0.6c-9.7-9.7-25.6-9.7-35.4 0L736 123.3c-9.7 9.7-9.7 25.6 0 35.4l0.6 0.6c9.7 9.7 25.6 9.7 35.4 0l180.1-180.1c9.7-9.8 9.7-25.7 0-35.4z"  horiz-adv-x="1024" />

    
    <glyph glyph-name="sqzj" unicode="&#58924;" d="M718.7 632.3H217.4c-14.3 0-21.5 8.3-21.5 24.9 0 16.6 7.2 24.9 21.5 24.9h501.2c14.3 0 21.5-8.3 21.5-24.9 0-16.6-7.1-24.9-21.4-24.9zM718.7 454H217.4c-14.3 0-21.5 8.3-21.5 24.9 0 16.6 7.2 24.9 21.5 24.9h501.2c14.3 0 21.5-8.3 21.5-24.9 0-16.6-7.1-24.9-21.4-24.9zM503.8 295.8H217.4c-14.3 0-21.5 8.3-21.5 24.9 0 16.6 7.2 24.9 21.5 24.9h286.4c14.3 0 21.5-8.3 21.5-24.9 0-16.6-7.1-24.9-21.5-24.9zM503.8 137.7H217.4c-14.3 0-21.5 8.3-21.5 24.9 0 16.6 7.2 24.9 21.5 24.9h286.4c14.3 0 21.5-8.3 21.5-24.9 0-16.6-7.1-24.9-21.5-24.9zM744.8 373.7c13.6 0 27.5-6.1 38.2-16.8 10.7-10.6 16.8-24.5 16.8-38.1 0-13.6-6.1-27.5-16.8-38.1-10.7-10.7-24.6-16.8-38.2-16.8s-27.5 6.1-38.2 16.8c-10.7 10.6-16.8 24.5-16.8 38.1 0 13.6 6.1 27.5 16.8 38.1 10.6 10.7 24.6 16.8 38.2 16.8m0 40c-50.6 0-95-44.3-95-94.9 0-50.6 44.3-94.9 95-94.9 50.6 0 95 44.3 95 94.9-0.1 50.6-44.4 94.9-95 94.9zM865 91c13.6 0 27.5-6.1 38.2-16.8 10.7-10.6 16.8-24.5 16.8-38.1s-6.1-27.5-16.8-38.1c-10.7-10.7-24.6-16.8-38.2-16.8H611.8c-36.1 0-55 27.6-55 54.9 0 13.6 6.1 27.5 16.8 38.1 10.7 10.7 24.6 16.8 38.2 16.8H865m0 40H611.8c-50.6 0-95-44.3-95-94.9 0-50.6 38-94.9 95-94.9H865c50.6 0 95 44.3 95 94.9 0 50.6-44.3 94.9-95 94.9zM631.5 108.1l63.9 154.6 36.1-9.7-64-154.6-36 9.7zM758.1 253l36 9.7 64.1-154.6-36.1-9.7-64 154.6z m0 0M828.4 793.5C800.1 818.3 762.1 832 721.3 832H214.8C174 832 136 818.3 107.7 793.5 79.5 768.8 64 735.7 64 700.3v-632.5c0-35.4 15.5-68.5 43.7-93.3C136-50.3 174-64 214.8-64h259.5c15.6 0 24.2 8.6 24.2 24.2s-8.6 24.2-24.2 24.2H214.8c-56.5 0-102.4 37.4-102.4 83.3V700.3c0 45.9 45.9 83.3 102.4 83.3h506.4c56.5 0 102.4-37.4 102.4-83.3v-202.4c0-15.6 8.6-24.2 24.2-24.2s24.2 8.6 24.2 24.2V700.3c0.1 35.4-15.4 68.5-43.6 93.2z"  horiz-adv-x="1024" />

    
    <glyph glyph-name="toHIdeIntro" unicode="&#58925;" d="M512 702.4l402.4-401.9c10.4-10.4 27.4-10.4 37.8 0 10.4 10.4 10.4 27.4 0 37.8L531.1 759c-5.2 5.2-12.2 7.8-19.1 7.8-6.9 0-13.8-2.6-19.1-7.8L71.8 338.4c-10.4-10.4-10.4-27.4 0-37.8 10.4-10.4 27.4-10.4 37.8 0L512 702.4zM512 410.9L914.4 9c10.4-10.4 27.4-10.4 37.8 0 10.4 10.4 10.4 27.4 0 37.8L531.1 467.4c-5.2 5.2-12.2 7.8-19.1 7.8-6.9 0-13.8-2.6-19.1-7.8L71.8 46.8c-10.4-10.4-10.4-27.4 0-37.8 10.4-10.4 27.4-10.4 37.8 0L512 410.9z"  horiz-adv-x="1024" />

    
    <glyph glyph-name="toHide" unicode="&#58926;" d="M512 65.6l402.4 401.9c10.4 10.4 27.4 10.4 37.8 0 10.4-10.4 10.4-27.4 0-37.8L531.1 9c-5.2-5.2-12.2-7.8-19.1-7.8-6.9 0-13.8 2.6-19.1 7.8L71.8 429.6c-10.4 10.4-10.4 27.4 0 37.8 10.4 10.4 27.4 10.4 37.8 0L512 65.6zM512 357.1L914.4 759c10.4 10.4 27.4 10.4 37.8 0 10.4-10.4 10.4-27.4 0-37.8L531.1 300.6c-5.2-5.2-12.2-7.8-19.1-7.8-6.9 0-13.8 2.6-19.1 7.8L71.8 721.2c-10.4 10.4-10.4 27.4 0 37.8 10.4 10.4 27.4 10.4 37.8 0L512 357.1z"  horiz-adv-x="1024" />

    
    <glyph glyph-name="voice" unicode="&#58927;" d="M524.9 782c19.9 0 39.4-3.9 57.8-11.7 18.4-7.8 34.8-18.9 48.7-33.2l0.1-0.1 0.1-0.1c14.3-14.4 25.4-31.3 33.1-50.1 7.7-18.8 11.6-38.6 11.5-58.9V414.8c0.1-20.3-3.8-40.1-11.5-58.9-7.7-18.8-18.9-35.6-33.1-50.1-28.7-29.1-66.6-45.1-106.7-45.1H496c-18.8 0.4-37.1 4.3-54.5 11.6-18.4 7.7-34.7 18.9-48.7 33.2l-0.1 0.1-0.1 0.1c-28.9 29.3-44.8 68.1-44.8 109.2v213c-0.1 20.3 3.8 40.1 11.5 58.9 7.7 18.8 18.9 35.6 33.2 50.1C421.3 766 459.2 782 499.2 782h25.7m0 50h-25.7c-53.6 0-104.1-21.3-142.2-60-38-38.4-59.3-90.3-59.2-144.3v-212.8c0-54.4 21-105.6 59.2-144.3 37.4-38.3 88.7-60 142.2-60h25.6c53.6 0 104.1 21.3 142.3 60 38 38.4 59.3 90.3 59.1 144.3V627.7c0.2 54-21.1 105.9-59.1 144.3-37.3 38.4-88.6 60-142.2 60zM744 215.6c30.8 31.2 54.8 67.5 71.3 108.1 16.6 40.6 24.9 83.3 24.7 127.1-0.1 12.5-10.2 22.7-22.6 22.7-12.5 0-22.6-10.3-22.6-22.9v-0.1c-0.1-158-127-286.5-282.8-286.5-155.9 0-282.8 128.7-282.8 286.9-0.1 12.5-10.2 22.7-22.6 22.7-12.4-0.1-22.5-10.3-22.6-22.7v-0.2c-0.1-43.8 8.2-86.5 24.8-127s40.6-76.8 71.3-108c56.9-58.2 132.8-92.6 214-97v-136.8H282c-12.5 0-22.6-10.3-22.6-22.9 0-6 2.3-11.9 6.5-16.2 4.3-4.3 10-6.7 16.1-6.8h469.4c12.5 0 22.6 10.3 22.6 22.9 0 11.6-8.5 21.2-19.5 22.7v0.3H539.3V119.4c77.6 6.4 150.2 40.5 204.7 96.2z"  horiz-adv-x="1024" />

    
    <glyph glyph-name="xx" unicode="&#58928;" d="M906.8 759c1.8 0 3.2-1.4 3.2-3.2v-553c0-1.8-1.4-3.2-3.2-3.2H432.5L417.9 185l-175-174.7c-0.6-0.6-1.4-1.2-2.4-1.2h-1.7l-0.3 0.1-1.1 0.4c-0.2 0.2-0.7 0.9-0.7 2.2V199.1H117.2c-1.8 0-3.2 1.4-3.2 3.2V755.8c0 1.8 1.4 3.2 3.2 3.2h789.6m0 50H117.2C87.8 809 64 785.2 64 755.8v-553.4c0-29.4 23.8-53.2 53.2-53.2h69.5v-137.3c0-21.9 13.1-41.6 33.1-49 6.5-2.8 13.1-3.7 20.5-3.7 14 0 27.5 5.6 37.8 15.9l175 174.7h453.6c29.4 0 53.2 23.8 53.2 53.2V756c0.1 29.2-23.7 53-53.1 53zM297.8 443.6c24.7 0 45 20.3 45 45.1 0 24.7-20.3 45.1-45 45.1s-45-20.3-45-45.1 20.3-45.1 45-45.1zM512 443.6c24.7 0 45 20.3 45 45.1 0 24.7-20.3 45.1-45 45.1s-45-20.3-45-45.1 20.3-45.1 45-45.1zM726.2 443.6c24.7 0 45 20.3 45 45.1 0 24.7-20.3 45.1-45 45.1s-45-20.3-45-45.1 20.3-45.1 45-45.1z"  horiz-adv-x="1024" />

    
    <glyph glyph-name="wodezj" unicode="&#58929;" d="M507.9 567.1c7.5 0 15.5-1.1 23.7-3.4 43.5-11.8 78.1-39.3 99.4-60.2 26.6-26.1 45.2-54 53.8-71.3 15-30.6 20.9-59.6 17.8-88.8-3.2-30.2-15.7-61.6-38.3-96.2l-1.1-1.7c-31.1-47-72.8-81.8-109.6-109.7-61.4-46.6-98.2-71.8-167.2-107.1l-0.1-0.1-0.1-0.1c-1.3-0.7-2.8-1.5-6.2-3.4-13.6-7.7-45.4-25.7-83.5-34.3-14-3.2-27.4-4.8-39.9-4.8-15 0-29.3 2.3-42.3 6.9-10.9 3.8-21.3 9.3-31 16.4-10.9 8-18.4 24.3-20.5 44.9-3 29.5 6.4 57.1 17.2 68.9 35 38.4 61.5 50.4 87.1 62 13.5 6.1 26.2 11.8 39.6 20.7 31.3 20.8 69.4 65 84 116.9 5.8 20.8 6.8 45.1 7.7 70.8v0.1c0.9 24.1 1.8 49.1 6.9 72.5 5 23.3 13.5 41.4 26 55.3 12.6 14.1 27.8 29.6 44.8 38.1 10.3 5.1 20.6 7.6 31.8 7.6m0 50c-19 0-37.1-4.3-54.1-12.9-24.4-12.3-43.8-31.9-59.5-49.4-41.4-46.2-43.7-108.9-45.6-159.3-0.9-22.7-1.7-44.1-5.9-59.2-10.6-37.6-40-73.2-63.5-88.8-10-6.6-20.4-11.4-32.5-16.8-27.4-12.4-61.6-27.8-103.5-73.9-22.4-24.6-34.1-66.8-30-107.7 3.6-35.2 18-63.6 40.8-80.2 13.7-10 28.4-17.8 43.9-23.2 18.4-6.5 38.1-9.7 58.8-9.7 16.3 0 33.3 2 50.9 6 45.3 10.2 81.6 30.8 97.1 39.5 1.9 1.1 3.8 2.1 4.6 2.5 72 36.9 112 64.3 174.6 111.8 40.1 30.4 85.8 68.7 121 121.9 55.2 83.4 63.1 158.6 24.8 236.4-21.1 42.9-87 131.1-185 157.7-12.6 3.6-24.9 5.3-36.9 5.3zM473.4 782c1 0 2.1-0.1 3.1-0.3 5.3-1 9.6-4.5 13-10.4 5.6-9.8 6.7-20.4 3.5-32.5-3.7-11.6-8.5-16.8-12.3-20l-0.1-0.1c-2.8-2.3-7.1-5-12.4-5-0.7 0-1.4 0-2.1 0.1-1.2 0.1-2.3 0.4-3.3 0.8-3.6 1.3-6.9 3.9-9.5 7.7-5.3 7.5-7.5 18.3-5.9 29 1.6 10.7 6.8 20.4 14 26 3.9 3.1 8 4.7 12 4.7m0 50c-15 0-29.9-5.2-42.7-15.1-17.4-13.5-29.4-34.7-32.9-58.2s1.9-47.3 14.6-65.3c8.7-12.3 20.4-21.2 33.8-25.9 4.4-1.5 9-2.6 13.6-3.2 2.8-0.4 5.6-0.5 8.3-0.5 16.1 0 31.7 5.9 44.8 16.9 13 11 22.2 25.3 27.9 43.7l0.2 0.7c6.9 25.1 4 49.6-8.2 71-10.5 18.4-27.1 30.7-46.6 34.6-4.2 0.9-8.5 1.3-12.8 1.3zM632.7 732.6c1.9 0 3.8-0.3 5.6-0.9 7.5-2.3 11.6-8.3 13.6-13 4.4-9.9 4.5-20.6 0.3-31.8-3.6-8.3-8-14.1-14-18.2l-0.1-0.1c-4.1-2.8-8.5-4.2-12.8-4.2-1.5 0-2.9 0.2-4.4 0.5-1.4 0.3-2.7 0.8-3.9 1.3-4 1.9-7.4 5.2-9.9 9.6-4.5 7.9-5.7 18.8-3.1 28.9 2.6 10.1 8.7 19.1 16.4 23.9 4.1 2.7 8.3 4 12.3 4m0 35c-10.6 0-21.2-3.1-30.9-9.2-15.4-9.6-27-26.1-31.8-45-4.8-19-2.4-38.9 6.6-54.8 6.2-10.8 15-19.1 25.5-24 3.5-1.6 7.2-2.9 10.9-3.8 4.1-0.9 8.2-1.4 12.2-1.4 11.4 0 22.7 3.6 32.7 10.5 11.6 8 20.3 18.9 26.5 33.6l0.2 0.6c7.7 20 7.4 40.4-0.9 58.9-7.1 16-19.7 27.4-35.4 32.2-4.9 1.6-10.2 2.4-15.6 2.4zM755.1 639.8c4.8 0 8.8-1.5 11.9-4.3 4.6-4.2 5.5-9.9 5.5-14 0-3.8-0.7-9.9-6.6-18.7l-0.1-0.2c-6.2-8.4-13.8-12.8-23.1-13.5-0.6 0-1.2-0.1-1.7-0.1-2.2 0-4.2 0.3-6.1 1-6.2 2.2-10.2 7.7-10.9 15-1.4 15.7 13.1 33.2 28.9 34.7 0.7 0.1 1.5 0.1 2.2 0.1m0 30c-1.6 0-3.3-0.1-4.9-0.2-32.2-2.9-58.9-35-56-67.2 1.8-19.6 14-34.7 30.8-40.6 5-1.8 10.4-2.7 16-2.7 1.3 0 2.7 0.1 4.1 0.2 18.1 1.4 33.7 10.4 45.1 26l0.5 0.7c7.9 11.7 11.8 23.4 11.8 35.5 0.1 14.3-5.3 27.1-15.2 36.2-8.7 7.8-20 12.1-32.2 12.1zM831.2 528.3h1.2c3.6-0.2 8.5-1.3 12-5.6s3.6-9.5 3-13.1c-0.5-3.4-2-8.8-8.4-15.9l-0.1-0.1c-6.2-6.2-12.9-9.2-20.6-9.2-0.7 0-1.4 0-2.1 0.1-1.7 0.1-3.3 0.4-4.8 1-6.5 2.3-10.1 8.1-9.7 15.6 0.4 6.8 4.2 14.1 10.2 19.5 5.7 4.8 12.8 7.7 19.3 7.7m0 30c-13.9 0-28.1-5.6-39.3-15.6-12-10.7-19.3-25.3-20.1-40.1-1.2-21.2 11-39.1 29.7-45.6 4-1.4 8.2-2.3 12.7-2.6 1.4-0.1 2.7-0.1 4.1-0.1 15.8 0 30.3 6.3 42.1 18.3l0.6 0.6c9.1 9.9 14.3 20.4 16.1 31.8 2.1 13.5-1.2 26.5-9.4 36.6-8.1 10-20 15.9-33.6 16.7h-2.9zM876.7 409.2c0.3-0.1 0.5-0.2 0.8-0.4 3.4-1.7 5.5-4.1 6.3-7.1 1-3.8-0.5-7.3-1.9-9.5s-4.1-5.6-11-8.6h-0.1c-6.4-2.5-12.1-2.5-17.5-0.1-0.5 0.2-1 0.4-1.4 0.7-1.1 0.6-2.1 1.3-2.9 2-3.5 3.3-4.1 8.2-1.7 12.9 2.4 4.7 7.4 8.6 13.4 10.5 5.4 1.8 11.3 1.7 16-0.4m11.2 25.2c-10.8 4.8-23.7 5.3-35.8 1.4-12.9-4.2-23.7-13-29.4-24.2-8.2-16.1-4.9-34.1 7.3-45.6 2.6-2.4 5.6-4.6 8.9-6.4 1-0.5 2.1-1 3.1-1.5 12.2-5.4 25.6-5.5 39-0.3l0.7 0.3c10.5 4.6 18.1 10.8 23.4 19.1 6.3 9.8 8.2 21 5.3 31.6-2.8 10.5-10 19.2-20.3 24.5-0.8 0.5-1.5 0.8-2.2 1.1z"  horiz-adv-x="1024" />

    
    <glyph glyph-name="yjfk" unicode="&#58930;" d="M959.9 448.8c-0.3 9.8-4.2 19.5-11.7 26.9L816 593.3V792c0 22.1-17.9 40-40 40H248c-22.1 0-40-17.9-40-40v-199.2l-132.2-117c-6.5-6.5-10.2-14.6-11.4-23-0.3-1.9-0.4-3.8-0.4-5.8v-471c0-22.1 17.9-40 40-40h816c22.1 0 40 17.9 40 40V447c0 0.6 0 1.2-0.1 1.8zM381.2 162.5L112-4.6V388.8l269.2-226.3z m38.6-32.5l63.9-53.7c7.8-7.8 18-11.7 28.3-11.7s20.5 3.9 28.3 11.7l64.1 53.9 234-146.2H184.7l235.1 146zM643 162.6l269 226.2v-394.1L643 162.6z m264.3 284.7L816 370.6V531.2l91.3-83.9zM768 784v-453.7l-256-215-256 215V784h512zM208 530.5v-159.9l-91.3 76.7 91.3 83.2z m0 0M384 576h256c13.3 0 24 10.7 24 24s-10.7 24-24 24H384c-13.3 0-24-10.7-24-24s10.7-24 24-24z m196-112H444c-13.3 0-24-10.7-24-24s10.7-24 24-24h136c13.3 0 24 10.7 24 24s-10.7 24-24 24z m0 0"  horiz-adv-x="1024" />

    
    <glyph glyph-name="zfmm" unicode="&#58931;" d="M513.7 781.8c50.6 0 95.7-14.4 127-40.7 15-12.6 26.7-27.8 34.7-45 8.6-18.6 12.9-39.7 12.9-62.8v-134.6h193.3c2.6 0 7.3-2.1 11.7-6.8 4.9-5.2 7.2-11.2 7.2-14.6l0.6-471.4c-0.1-1.8-2.3-7.4-7.8-12.8-5.2-5.1-10.1-6.8-11.6-6.8H145.9c-3.3 0-9 2.4-14.1 7.9-5.5 5.8-8.8 13.2-8.8 19.9V477.3c0 1.7 1.7 6.9 7 12.7 5.4 5.9 11 8.4 12.9 8.7H339V633.3c0 23.1 4.4 44.2 12.9 62.8 8 17.3 19.7 32.4 34.7 45 31.4 26.2 76.5 40.7 127.1 40.7m0 50C388.9 831.8 289 758.3 289 633.3v-84.6H142.6c-32.6 0-69.6-35.8-69.6-71.4V14c0-41.5 36-77.8 72.9-77.8h735.6c35.6 0 69.4 37 69.4 69.5l-0.6 471.5c0 35-32.2 71.4-68.8 71.4H738.3v84.6c0 125.1-99.9 198.6-224.6 198.6zM313.9 544.9v-42.2c0-3.5 2.7-4 20.6-4h361.6c17.9 0 17.8 0.1 17.8 3.7v42.8c0 3.5 0.1 3.5-17.8 3.5l-364.5 0.1c-17.8-0.1-17.7-0.4-17.7-3.9zM516.9 360.3c41.7 0 75.7-33.9 75.7-75.7 0-17.3-5.6-33.5-16.3-47-10.4-13.1-25-22.5-41.1-26.5l-20.9-5.2-20.4 6.5c-14.9 4.8-28.3 14.4-37.7 27.1-9.7 13.1-14.8 28.6-14.8 45-0.1 41.9 33.8 75.8 75.5 75.8m0 50c-69.4 0-125.7-56.3-125.7-125.7 0-56 36.7-103.5 87.3-119.7-1.1-3.4-1.7-7.1-1.7-10.9v-60.4c0-19.7 16-35.7 35.7-35.7 19.7 0 35.7 16 35.7 35.7V154c0 3-0.4 5.8-1 8.6 54.8 13.5 95.4 63 95.4 122 0 69.5-56.3 125.7-125.7 125.7z"  horiz-adv-x="1024" />

    
    <glyph glyph-name="yqhy" unicode="&#58932;" d="M833-13.9c-29.8 0-55.3 25.7-63.8 29.9L526.9 161.5c-8.5 4.3-12.8 21.4-8.5 29.9 4.2 8.5 21.3 12.8 29.7 8.5l242.3-149.7c17-12.8 34-21.4 38.3-21.4 0 0 4.2 4.3 4.2 17.1 4.3 77 59.5 684.4 63.8 710.1 0 8.6-4.2 25.7-8.5 29.9-4.3 0-8.5 0-17-4.3-59.5-29.8-684.4-346.3-714.2-359.2-12.7-4.3-25.5-17.1-25.5-21.4 0-4.3 4.2-12.9 25.5-25.7 80.8-47.1 131.8-72.8 131.8-72.8 8.5-4.3 12.8-17.1 8.5-29.9-4.2-8.5-17-12.8-29.8-8.5 0 0-51 25.7-131.8 72.7C101.7 354 89 375.3 89 401c0 34.2 42.5 55.6 46.8 59.9 4.3 4.3 654.7 329.4 710 359.3 29.8 17.1 46.8 12.8 59.5 4.3C935 807.4 935 764.6 935 756.1c0-8.5-59.5-637.4-63.8-710.1 0-29.9-12.8-47.1-29.8-55.6 0.1 0-4.2-4.3-8.4-4.3zM377.6-64c-13.1 0-21.8 8.5-21.8 21.3V229.5l4.3 4.2 522.6 570c4 4.1 9.5 6.4 15.2 6.4 5.7 0 11.2-2.3 15.2-6.4 4.2-3.8 6.5-9.2 6.5-14.9 0-5.7-2.4-11.1-6.5-14.9L399.4 216.7v-259.5c0-12.7-13.1-21.2-21.8-21.2z"  horiz-adv-x="1024" />

    
    <glyph glyph-name="zhengxu" unicode="&#58933;" d="M781.9 728.9c-4.2 4.2-9.8 6.5-15.6 6.5-5.8 0-11.5-2.4-15.6-6.5L617.4 595.8c-4.2-4.2-6.5-9.7-6.5-15.6s2.3-11.5 6.5-15.6c4.2-4.2 9.7-6.5 15.7-6.5 5.9 0 11.5 2.3 15.7 6.5l55.8 55.8 42.6 42.6v-434c0-12.2 9.9-22.1 22.1-22.1s22.1 9.9 22.1 22.1V656.9l42.6-42.7 49.8-49.8c4.2-4.2 9.7-6.5 15.7-6.5 1.9 0 3.9 0.3 5.7 0.8 7.6 2 13.6 8 15.7 15.7 2 7.6-0.2 15.8-5.7 21.4L781.9 728.9zM462.4 689H89c-13.7 0-25 11.2-25 25 0 13.7 11.2 25 25 25h373.4c13.7 0 25-11.2 25-25-0.1-13.7-11.3-25-25-25zM462.4 358.6H89c-13.7 0-25 11.2-25 25 0 13.7 11.2 25 25 25h373.4c13.7 0 25-11.2 25-25-0.1-13.7-11.3-25-25-25zM935 29H89c-13.7 0-25 11.2-25 25 0 13.7 11.2 25 25 25h846c13.7 0 25-11.2 25-25s-11.2-25-25-25z"  horiz-adv-x="1024" />

    
    <glyph glyph-name="daoxu-" unicode="&#58934;" d="M781.9 39.1c-4.2-4.2-9.8-6.5-15.6-6.5-5.8 0-11.5 2.4-15.6 6.5L617.4 172.2c-4.2 4.2-6.5 9.7-6.5 15.6s2.3 11.5 6.5 15.6c4.2 4.2 9.7 6.5 15.7 6.5 5.9 0 11.5-2.3 15.7-6.5l55.8-55.8 42.6-42.6V539.2c0 12.2 9.9 22.1 22.1 22.1s22.1-9.9 22.1-22.1v-428.1l42.6 42.7 49.8 49.8c4.2 4.2 9.7 6.5 15.7 6.5 1.9 0 3.9-0.3 5.7-0.8 7.6-2 13.6-8 15.7-15.7 2-7.6-0.2-15.8-5.7-21.4L781.9 39.1zM462.4 79H89c-13.7 0-25-11.2-25-25 0-13.7 11.2-25 25-25h373.4c13.7 0 25 11.2 25 25-0.1 13.7-11.3 25-25 25zM462.4 409.4H89c-13.7 0-25-11.2-25-25 0-13.7 11.2-25 25-25h373.4c13.7 0 25 11.2 25 25-0.1 13.7-11.3 25-25 25zM935 739H89c-13.7 0-25-11.2-25-25 0-13.7 11.2-25 25-25h846c13.7 0 25 11.2 25 25s-11.2 25-25 25z"  horiz-adv-x="1024" />

    
    <glyph glyph-name="yuyin" unicode="&#58935;" d="M212 382.8c0-39.8 32.2-72.1 72-72.1s72 32.3 72 72.1-32.2 72.1-72 72.1-72-32.3-72-72.1z m0 0M524 70.5c-4.8 0-14.4 0-19.2 4.8-9.6 9.6-9.6 24 0 33.6 72 72.1 110.4 168.2 110.4 273.8 0 100.9-38.4 197-110.4 273.8-4.8 9.6-4.8 24 4.8 33.6 9.6 9.6 24 9.6 33.6 0 81.6-81.5 124.8-192 124.8-307.3 0-115.3-43.2-225.8-124.8-307.5-4.8-4.8-14.4-4.8-19.2-4.8zM610.4-64c-4.8 0-14.4 0-19.2 4.8-9.6 9.6-9.6 24 0 33.6 110.4 110.5 168 254.6 168 408.4 0 153.7-52.8 297.9-163.2 408.4-9.6 9.6-9.6 24 0 33.6 9.6 9.6 24 9.6 33.6 0C749.6 704.7 812 551 812 382.8s-67.2-321.9-182.4-442c-4.8-4.8-9.6-4.8-19.2-4.8zM423.2 171.4c-4.8 0-14.4 0-19.2 4.8-9.6 9.6-9.6 24 0 33.6 43.2 43.2 72 105.7 72 168.1s-24 129.7-72 173c-9.6 9.6-9.6 24 0 33.6 9.6 9.6 24 9.6 33.6 0 52.8-52.8 86.4-124.9 86.4-201.8s-28.8-148.9-86.4-201.8c-4.8-4.7-9.6-9.5-14.4-9.5z"  horiz-adv-x="1024" />

    
    <glyph glyph-name="wenti-" unicode="&#58936;" d="M512 782c53.8 0 105.9-10.5 154.9-31.3 47.4-20 90-48.7 126.5-85.3 36.6-36.6 65.3-79.1 85.3-126.5 20.7-49 31.3-101.2 31.3-154.9s-10.5-105.9-31.3-154.9c-20-47.4-48.7-90-85.3-126.5-36.6-36.6-79.1-65.3-126.5-85.3-49-20.8-101.1-31.3-154.9-31.3s-105.9 10.5-154.9 31.3c-47.4 20-90 48.7-126.5 85.3-36.6 36.6-65.3 79.1-85.3 126.5-20.8 49-31.3 101.1-31.3 154.9s10.5 105.9 31.3 154.9c20 47.4 48.7 90 85.3 126.5 36.6 36.6 79.1 65.3 126.5 85.3 49 20.8 101.1 31.3 154.9 31.3m0 50C264.6 832 64 631.4 64 384s200.6-448 448-448 448 200.6 448 448S759.4 832 512 832zM689.2 507.9c-4.3 31.8-16.8 60.4-36.9 85.3-36 44.4-83 66.7-134.5 68.3-26-0.3-46-3.3-65.3-10.3-45.8-16.7-79.8-46.9-101.5-90.6-12.8-25.7-18.8-53.1-17.9-81.8 0.5-15.6 17.8-26 32-19.3 8.6 4.1 12.9 11 13.7 20.5 0.8 9.9 1 19.9 3 29.5 13.8 67.2 77.5 113 145.9 105 26.7-3.1 50.7-13.4 70.7-31.3 37.1-33.1 52.8-74.5 44.6-123.7-6.8-41-29.3-72-65.2-92.7-46.6-27-76.5-66.2-88.8-118.7-1.4-6.1-3.2-12.3-2.1-18.8 1.7-10.8 11-19 22-19.3 11-0.3 20.8 7.4 23 18.1 0.5 2.6 0.9 5.3 1.5 7.9 8.4 38.6 29.5 68.1 63.2 88.6 10.5 6.4 21.1 12.4 30.2 20.7 7.2 6.5 15 12.6 21.1 20 34.5 41.5 48.5 89.1 41.3 142.6zM503.6 164.1c-15.7 0-28.7-13-28.8-28.7 0-15.8 13-28.9 28.8-28.9 15.7 0 28.7 12.9 28.8 28.6 0.1 15.8-13.1 29-28.8 29z"  horiz-adv-x="1024" />

    
    <glyph glyph-name="weibiaoti--" unicode="&#58937;" d="M753.1 419.3c-36.2 0-72.3-0.4-108.5 0.1-27.6 0.4-50.6 12.1-69.4 32-18.6 19.6-28 43.2-28 70.3 0 70.5-0.9 141 0.3 211.5 0.7 40.9 22.2 70.3 58.6 88.7C619.9 829 634.8 832 650.4 832c68.8 0 137.6 0.1 206.4-0.1 51.1-0.1 93.8-36.7 101.9-87.1 0.9-5.9 1.2-11.9 1.2-17.9 0.1-68.1 0.2-136.1 0-204.2-0.1-37.5-16.4-66.6-47.3-87.3-17.6-11.8-37.5-16.7-58.7-16.5-33.6 0.3-67.1 0.1-100.7 0.1-0.1 0.1-0.1 0.2-0.1 0.3z m158.5 206v115c0 3.4 0.1 6.8-0.6 10.1-4 20.4-19.7 33.3-40.7 33.3H649.1c-5.3 0-10.6-0.6-16-0.8-20.9-0.8-38-19.8-37.9-41.2 0.6-77.6 0.2-155.1 0.2-232.7 0-3 0-6.2 0.7-9.1 4.1-19.8 19.7-32.4 39.9-32.5 77.6 0 155.1 0.3 232.7-0.2 25.5-0.2 43.5 19.2 43.1 42.8-0.7 38.4-0.2 76.8-0.2 115.3zM270.7 419.3c-36.3 0-72.6-0.5-109 0.2-27.7 0.5-50.9 12.3-69.7 32.3-18.4 19.6-27.6 43-27.6 70 0 70.5-1 141 0.3 211.5 0.7 40.9 22.3 70.2 58.6 88.7 13.9 7.1 28.8 10 44.3 10 68.8 0 137.6 0.1 206.4-0.1 51.1-0.1 93.9-36.9 101.8-87.2 0.9-5.9 1.2-11.9 1.2-17.9 0.1-68.1 0.2-136.1 0-204.2-0.1-37.5-16.5-66.6-47.4-87.3-17.6-11.8-37.5-16.7-58.8-16.5-33.4 0.3-66.8 0.1-100.2 0.1 0.1 0.2 0.1 0.3 0.1 0.4z m-158 205.9c0-38.9-0.1-77.9 0-116.8 0-24.4 17-41.2 41.4-41.2 77.4 0 154.8 0.3 232.2-0.2 25.4-0.1 42.8 19.5 42.6 42.3-0.5 77.3-0.2 154.5-0.2 231.8 0 3.1 0 6.2-0.6 9.1-4 20.4-19.8 33.3-40.7 33.3H166.2c-5.3 0-10.6-0.6-16-0.8-20.5-0.7-38.4-19.4-37.9-41.7 1-38.5 0.4-77.1 0.4-115.8zM270.7-63.6c-36.3 0-72.6-0.5-109 0.2-27.7 0.4-50.9 12.2-69.7 32.3-18.4 19.6-27.6 43-27.6 70 0 70.5-1 141 0.3 211.5 0.7 40.9 22.3 70.2 58.6 88.7 13.9 7.1 28.8 10 44.3 10 68.8 0 137.6 0.1 206.4-0.1 51.1-0.1 93.9-36.9 101.8-87.2 0.9-5.9 1.2-11.9 1.2-17.9 0.1-68.1 0.2-136.1 0-204.2-0.1-37.5-16.5-66.6-47.4-87.3-17.6-11.8-37.5-16.7-58.8-16.5-33.4 0.3-66.8 0.1-100.2 0.1 0.1 0.2 0.1 0.3 0.1 0.4z m-158 206.8c0-39.5-0.1-79.1 0-118.6 0.1-23.2 17.3-40.2 40.5-40.2h234.5c23.9 0 41 17.1 41.1 41.2 0.1 77.9 0.1 155.7 0 233.6 0 24.6-17.1 41.6-41.6 41.7-77.7 0-155.4-0.1-233.1 0.1-24.2 0.1-42.1-19.8-41.6-41.4 0.7-38.9 0.2-77.7 0.2-116.4zM638.9 73.8c0-24.8 0.1-49.7-0.1-74.5-0.1-7.3-3-14-7.5-19.9-8.8-11.7-22.9-12.1-31.2-0.1-3.8 5.4-5.5 12.4-7.6 18.9-0.9 3-0.6 6.4-0.6 9.6V141.2c0 8.6 1.3 16.8 5.9 24.2 9.2 15 26.5 14.9 35.6-0.2 4.8-7.9 5.9-16.6 5.9-25.6v-65.8h-0.4zM776.9 245.8c0-24.7 0.2-49.4-0.1-74-0.1-7.5-3.1-14.3-7.8-20.3-8.8-11.2-22.5-11.2-31.2 0.2-4.4 5.7-6.8 12.3-7.5 19.4-0.3 3-0.4 6.1-0.4 9.2V313.7c0 8.7 1.4 17.1 6.1 24.6 9.1 14.5 26.1 14.4 35.1-0.2 5.1-8.1 6.1-17.2 6.1-26.5v-65.8h-0.3zM914.8 56.4c0-19 0.2-38-0.1-57-0.1-7.3-3-14-7.4-19.9-9-12-23.2-11.8-31.9 0.3-4.2 5.8-7 12.4-7.1 19.6-0.3 18.7-0.4 37.4-0.4 56 0 19.6-0.3 39.2 0.6 58.8 0.3 6.2 3.1 12.9 6.5 18.2 8.4 13.2 24.6 12.8 33.4-0.2 5.6-8.2 6.8-17.5 6.8-27.2V56.3c-0.1 0.1-0.2 0.1-0.4 0.1zM776.9 38.9c0-13.2 0.2-26.4-0.1-39.5-0.2-7.4-3-14-7.5-19.9-8.8-11.7-22.9-12.1-31.2-0.1-3.8 5.4-7.2 12.4-7.4 18.8-0.8 27.4-0.7 54.9-0.1 82.3 0.2 6 3.2 12.6 6.6 17.8 8.4 12.9 24.6 12.4 33.2-0.4 5.5-8.1 6.8-17.2 6.9-26.7V39c-0.2-0.1-0.3-0.1-0.4-0.1zM914.8 280.3c0-13.2 0.3-26.4-0.1-39.5-0.2-7.7-3.2-14.6-8-20.6-8.7-10.8-22-10.7-30.6 0.1-4.5 5.6-7.6 12.2-7.7 19.3-0.3 27.4-0.5 54.9 0.2 82.3 0.1 5.9 3.1 12.2 6.3 17.4 8.4 13.2 24.6 12.9 33.4-0.1 5.5-8.1 6.8-17.2 6.9-26.7v-32.2h-0.4zM639.9 297.4c-0.6-9.3-0.7-18.7-2.2-27.8-0.8-4.9-3.4-9.9-6.3-14-8.6-12.1-23-12.4-31.4-0.3-3.8 5.5-6.9 12.4-7.3 18.9-1.1 15.7-1 31.5-0.1 47.2 0.3 6.1 3.1 12.6 6.4 17.8 8.5 13.4 24.8 13 33.6-0.3 5.2-7.8 6.5-16.7 6.7-25.8 0.1-5.2 0-10.4 0-15.6 0.2 0 0.4 0 0.6-0.1zM753.5 557.3c-12.7 0-25.4-0.5-38.1 0.1-16 0.7-29.9 15.2-30.1 31.1-0.3 24.8-0.3 49.6 0 74.5 0.2 16 15.4 30.7 31.9 30.9 24.2 0.3 48.4 0.3 72.6 0 16.9-0.2 31.7-14.9 32-31.9 0.4-24.5 0.3-49 0-73.5-0.2-15.8-14.3-30.3-30.2-31.1-12.6-0.6-25.3-0.1-38.1-0.1zM270.7 557.3c-12.7 0-25.4-0.5-38.1 0.1-16 0.7-29.9 15.1-30.1 31-0.3 24.8-0.3 49.6 0 74.5 0.2 16 15.3 30.7 31.9 31 24.2 0.3 48.4 0.3 72.6 0 16.9-0.2 31.8-14.9 32-31.8 0.4-24.7 0.4-49.3 0-74-0.2-15.3-14.4-29.6-29.6-30.7-6.4-0.4-12.9-0.4-19.3-0.4-6.4-0.1-12.9 0-19.3 0-0.1 0.1-0.1 0.2-0.1 0.3zM270.7 74.4c-12.7 0-25.4-0.5-38.1 0.1-16.1 0.7-30 15.3-30.1 31.5-0.3 24.2-0.3 48.4 0 72.6 0.2 17.4 15 32.2 32.5 32.3 23.9 0.2 47.8 0.3 71.7 0 17.4-0.2 32.3-15 32.4-32.4 0.3-24.1 0.2-48.1 0-72.2-0.2-16.8-13.9-30.8-30.6-32.1-1.2-0.1-2.4-0.3-3.7-0.3h-34c-0.1 0.3-0.1 0.4-0.1 0.5z"  horiz-adv-x="1024" />

    
    <glyph glyph-name="wen-" unicode="&#58938;" d="M731.9 700c-70 70-161.7 105-253.4 105-91.8 0-183.4-35-253.4-105C85 560 85 333.1 225 193.1c70-70 161.7-105 253.4-105 91.8 0 183.4 35 253.4 105 140.1 140 140.1 366.9 0.1 506.9z m-93.5-273.5h-140v-140c0-11-9-20-20-20s-20 9-20 20v140h-140c-11 0-20 9-20 20s9 20 20 20h140v140c0 11 9 20 20 20s20-9 20-20v-140h140c11 0 20-9 20-20s-9-20-20-20z"  horiz-adv-x="1024" />

    
    <glyph glyph-name="wenti-1" unicode="&#58939;" d="M512 782c53.8 0 105.9-10.5 154.9-31.3 47.4-20 90-48.7 126.5-85.3 36.6-36.6 65.3-79.1 85.3-126.5 20.7-49 31.3-101.2 31.3-154.9s-10.5-105.9-31.3-154.9c-20-47.4-48.7-90-85.3-126.5-36.6-36.6-79.1-65.3-126.5-85.3-49-20.8-101.1-31.3-154.9-31.3s-105.9 10.5-154.9 31.3c-47.4 20-90 48.7-126.5 85.3-36.6 36.6-65.3 79.1-85.3 126.5-20.8 49-31.3 101.1-31.3 154.9s10.5 105.9 31.3 154.9c20 47.4 48.7 90 85.3 126.5 36.6 36.6 79.1 65.3 126.5 85.3 49 20.8 101.1 31.3 154.9 31.3m0 50C264.6 832 64 631.4 64 384s200.6-448 448-448 448 200.6 448 448S759.4 832 512 832zM689.2 507.9c-4.3 31.8-16.8 60.4-36.9 85.3-36 44.4-83 66.7-134.5 68.3-26-0.3-46-3.3-65.3-10.3-45.8-16.7-79.8-46.9-101.5-90.6-12.8-25.7-18.8-53.1-17.9-81.8 0.5-15.6 17.8-26 32-19.3 8.6 4.1 12.9 11 13.7 20.5 0.8 9.9 1 19.9 3 29.5 13.8 67.2 77.5 113 145.9 105 26.7-3.1 50.7-13.4 70.7-31.3 37.1-33.1 52.8-74.5 44.6-123.7-6.8-41-29.3-72-65.2-92.7-46.6-27-76.5-66.2-88.8-118.7-1.4-6.1-3.2-12.3-2.1-18.8 1.7-10.8 11-19 22-19.3 11-0.3 20.8 7.4 23 18.1 0.5 2.6 0.9 5.3 1.5 7.9 8.4 38.6 29.5 68.1 63.2 88.6 10.5 6.4 21.1 12.4 30.2 20.7 7.2 6.5 15 12.6 21.1 20 34.5 41.5 48.5 89.1 41.3 142.6zM503.6 164.1c-15.7 0-28.7-13-28.8-28.7 0-15.8 13-28.9 28.8-28.9 15.7 0 28.7 12.9 28.8 28.6 0.1 15.8-13.1 29-28.8 29z"  horiz-adv-x="1024" />

    
    <glyph glyph-name="home-" unicode="&#58940;" d="M948.3 420.4L528.8 798.3c-5.6 5.8-12.6 8.7-19.6 8.7s-14-2.9-19.6-8.7l-413.9-378c-11.2-11.6-16.8-29.1-5.6-40.7 6.6-6.8 15-9.6 23.2-9.6 5.8 0 11.4 1.4 16 3.8l55.9 52.3v-331.4c0-75.6 61.5-133.7 139.8-133.7h414c78.3 0 139.8 64 139.8 133.7V426.2l55.9-52.3c5.6-5.8 11.2-5.8 16.8-5.8s16.8 5.8 22.4 11.6c11.2 11.6 5.6 29.1-5.6 40.7zM628.8 17.8H395.2V192.9c0 68.1 51.3 121.4 116.8 121.4S628.8 261 628.8 192.9v-175.1z"  horiz-adv-x="1024" />

    
    <glyph glyph-name="like-active-" unicode="&#58941;" d="M212 481.7l-106-0.3c-1.5 0.2-3 0.3-4.5 0.3-20.6 0-37.3-17.4-37.3-38.8l-0.3-466.5c0-21.5 16.7-38.8 37.3-38.8 2 0 4 0.2 5.9 0.5l104.9-0.1V481.7zM943.2 465.6c-20.2 33.9-54.4 52.9-90 54.4-1.8 0.3-3.7 0.5-5.6 0.5l-198.2 0.2c-5 0-8.5 4.8-7 9.5 12.1 39.3 18.7 81.2 18.7 124.8 0 30.5-3.3 60.2-9.4 88.8l-0.5-0.1C640.1 794 597 831.4 545.5 831.4c-60 0-108.6-50.6-108.6-113 0-3.5 0.2-6.9 0.5-10.2-2.9-108.5-77-198.9-175.4-221.5V-62l512-0.2v-0.2h0.2c20.2 0 40.7 5.7 59 17.8 17.5 11.6 30.6 27.4 39.2 45.4 2.4 3.6 4.2 7.6 5.4 12l80.6 370.5c1.1 4.4 0.8 8.8 1.1 13.1 1.7 23.5-3.4 47.6-16.3 69.2z"  horiz-adv-x="1024" />

    
    <glyph glyph-name="dislike-active-" unicode="&#58952;" d="M212 830.9l-104.9-0.1c-1.9 0.3-3.9 0.5-5.9 0.5-20.6 0-37.3-17.3-37.3-38.8l0.3-466.5c0-21.4 16.7-38.8 37.3-38.8 1.5 0 3 0.1 4.5 0.3l106-0.3V830.9zM959.5 372.5c-0.3 4.3 0 8.7-1.1 13.1l-80.6 370.5c-1.2 4.4-3 8.4-5.4 12-8.6 18-21.7 33.8-39.2 45.4-18.3 12.1-38.8 17.8-59 17.8h-0.2v-0.2l-512-0.2v-548.6c98.4-22.6 172.5-113.1 175.4-221.6-0.3-3.3-0.5-6.7-0.5-10.2 0-62.4 48.6-113 108.6-113 51.5 0 94.6 37.4 105.7 87.6l0.5-0.1c6.1 28.6 9.4 58.3 9.4 88.8 0 43.6-6.6 85.5-18.7 124.8-1.5 4.7 2 9.5 7 9.5l198.2 0.2c1.9 0 3.8 0.2 5.6 0.5 35.6 1.5 69.8 20.5 90 54.4 12.9 21.7 18 45.8 16.3 69.3z"  horiz-adv-x="1024" />

    
    <glyph glyph-name="more-" unicode="&#58953;" d="M420.2 740.2c0-50.7 41.1-91.8 91.8-91.8 50.7 0 91.8 41.1 91.8 91.8 0 50.7-41.1 91.8-91.8 91.8-50.7 0-91.8-41.1-91.8-91.8zM420.2 384c0-50.7 41.1-91.8 91.8-91.8 50.7 0 91.8 41.1 91.8 91.8 0 50.7-41.1 91.8-91.8 91.8-50.7 0-91.8-41.1-91.8-91.8zM420.2 27.8c0-50.7 41.1-91.8 91.8-91.8 50.7 0 91.8 41.1 91.8 91.8 0 50.7-41.1 91.8-91.8 91.8-50.7 0.1-91.8-41.1-91.8-91.8z"  horiz-adv-x="1024" />

    
    <glyph glyph-name="reply-" unicode="&#58954;" d="M153.5 6.7c-20.6 0-31.6 10.6-36.3 16.9-18.8 25.1-5.5 62 11.4 108.6 6 16.6 15.7 43.3 16.8 55.1C97.3 234.1 64 320.8 64 401.2c0 98.6 47.5 190.3 133.9 258 83.8 65.8 195.5 102.1 314.3 102.1 70.2 0 137.7-13.1 200.8-39 59.5-24.4 112.7-59.9 154.1-102.5 62.3-64.3 95.3-142.3 92.9-219.5-3.1-98.7-51.3-190-135.7-257.1-83-66-193.9-102.4-312-102.4-68.5 0-150.6 12.8-192 30-13.8-0.2-48.2-17.4-73.4-29.9-36.8-18.4-68.5-34.2-93.4-34.2z m358.6 697c-106 0-204.9-31.9-278.7-89.8-72.1-56.6-111.8-132.1-111.8-212.7 0-65.8 28.9-141.3 67.2-175.5 20.6-18.4 13.8-48.2 11.2-59.4-3.7-16.4-10.6-35.4-17.3-53.7-4.6-12.7-11.3-31-14.8-44.6 15.3 5.6 37 16.4 52.9 24.4 37.1 18.5 72.1 36 99.4 36 7.7 0 14.7-1.4 21-4 33.6-14.3 110.2-25.9 170.8-25.9 213.4 0 384.7 133.4 390.1 303.7 1.9 61.5-25.3 124.5-76.7 177.5-75.1 77.6-192.2 124-313.3 124zM271.7 405.5c0-30.6 24.8-55.4 55.4-55.4 30.6 0 55.4 24.8 55.4 55.4 0 30.6-24.8 55.4-55.4 55.4-30.7 0-55.4-24.8-55.4-55.4zM449.3 405.5c0-30.6 24.8-55.4 55.4-55.4 30.6 0 55.4 24.8 55.4 55.4 0 30.6-24.8 55.4-55.4 55.4-30.6 0-55.4-24.8-55.4-55.4zM626.9 405.5c0-30.6 24.8-55.4 55.4-55.4 30.6 0 55.4 24.8 55.4 55.4 0 30.6-24.8 55.4-55.4 55.4-30.6 0-55.4-24.8-55.4-55.4z"  horiz-adv-x="1024" />

    
    <glyph glyph-name="check-active" unicode="&#58955;" d="M512 832C264.6 832 64 631.4 64 384s200.6-448 448-448 448 200.6 448 448S759.4 832 512 832z m193.1-350.5L475.7 252.3c-0.4-0.4-0.7-0.8-1.1-1.2-8.3-8.3-21.1-9.6-30.7-3.7-1.7 1-3.4 2.3-4.8 3.7-0.4 0.4-0.8 0.9-1.2 1.3L319 371.3c-9.7 9.7-9.7 25.6 0 35.4 9.7 9.7 25.6 9.7 35.4 0L457 304.2 669.8 517c9.7 9.7 25.6 9.7 35.4 0 9.6-9.8 9.6-25.7-0.1-35.5z"  horiz-adv-x="1024" />

    
    <glyph glyph-name="xx1" unicode="&#58956;" d="M610.8 54.7h-39.5c-5.2 0-9.5-4.3-9.5-9.5 0-27.7-22.4-50.3-49.8-50.3-27.5 0-49.9 22.6-49.9 50.3 0 5.2-4.3 9.5-9.5 9.5h-39.5c-5.2 0-9.5-4.3-9.5-9.5C403.7-14 453.3-64 512-64s108.3 50 108.3 109.2c0 5.3-4.2 9.5-9.5 9.5zM701 440.2c1.5-3.7 5-6 8.8-6 0.6 0 1.2 0.1 1.8 0.2 4.5 0.9 7.7 4.9 7.7 9.4-0.3 45.2-14.6 89.9-39.5 122.8-25.2 33.3-65.1 57.9-106.6 65.9-4.4 0.9-8.6-1.4-10.4-5.5-1.8-4-0.6-8.8 2.8-11.5C626 568.6 675.3 504.6 701 440.2zM512 782c14.2 0 27.9-5.5 38.7-15.6 11-10.2 17.7-23.8 19-38.3l2.8-31.2 29.4-11.1c48.8-18.5 90.3-51.2 120.2-94.6 30-43.6 45.8-94.5 45.8-147.4v-196.5l21.6-14.9c36.8-25.3 62.6-63.7 72.6-106.9H161.9c4.3 18.9 11.6 36.8 21.8 53.4 13.1 21.3 30.1 39.2 50.7 53.5l21.6 14.9V443.8c0 52.8 15.8 103.8 45.8 147.4 29.9 43.4 71.4 76.2 120.1 94.7l29.4 11.1 2.8 31.2c1.3 14.6 8.1 28.2 19 38.3 10.9 10 24.7 15.5 38.9 15.5m0 50c-55.8 0-102.9-44-107.8-99.5-118.8-45.1-198.3-160.3-198.3-288.8v-170.3c-53-36.6-88-93.6-96.6-157.4-2.1-5.3-2.7-10.9-1.7-16.4-0.4-4.8-0.5-9.7-0.5-14.6 0-5.3 4.3-9.5 9.5-9.5h791.1c5.2 0 9.5 4.3 9.5 9.5 0 4.9-0.2 9.7-0.5 14.6 0.3 1.5 0.5 3.4 0.5 5.4 0 3.7-0.7 7.4-2.2 11.1-8.6 63.8-43.7 120.9-96.7 157.5V443.8c0 128.4-79.5 243.7-198.3 288.7-5.1 55.4-52.2 99.5-108 99.5z"  horiz-adv-x="1024" />

    
    <glyph glyph-name="weibiaoti-" unicode="&#58957;" d="M868.6 9.1H155.4c-50.5 0-91.4 40.9-91.4 91.4V448h896v-347.4c0-50.5-40.9-91.5-91.4-91.5zM630.9 246.9l-36.6-128h219.4l36.6 128H630.9zM64 667.4c0 50.5 40.9 91.4 91.4 91.4h713.1c50.5 0 91.4-40.9 91.4-91.4V576H64v91.4z m0 0"  horiz-adv-x="1024" />

    
    <glyph glyph-name="suo" unicode="&#58958;" d="M496.4 337.9c-15.1 0-27.3-12.2-27.3-27.3v-122c0-15.1 12.2-27.4 27.3-27.4 15.1 0 27.3 12.2 27.3 27.4v122c0.1 15.1-12.1 27.3-27.3 27.3z m0 0M927.3 420.8c-0.5 2.8-1.2 5.5-1.9 8.2-1.5 6.1-3.3 12-5.5 17.8-1 2.7-2 5.4-3.1 8-3.4 7.5-7.2 14.8-11.8 21.6-1.3 2-2.9 3.7-4.3 5.6-3.6 4.9-7.4 9.6-11.6 14.1-2.7 2.8-5.5 5.4-8.3 8-3.3 3-6.7 5.8-10.3 8.5-3.4 2.6-6.9 5.2-10.6 7.6-2.9 1.8-6.1 3.4-9.2 5-4 2.1-7.6 4.6-11.7 6.4C824.6 699.1 682.2 832 512 832S199.4 699.1 185 531.5c-5-2.1-9.6-4.8-14.3-7.4-1.8-1-3.7-1.8-5.5-2.8-3.1-1.9-5.9-4.2-8.9-6.4-3-2.1-6.1-4.1-8.9-6.4-1.6-1.3-2.9-2.9-4.5-4.3-3.8-3.5-7.7-6.9-11.1-10.7-0.8-0.9-1.4-2-2.2-2.9-3.9-4.5-7.6-9.2-10.9-14.2 0-0.1-0.1-0.2-0.1-0.2-7.9-11.9-14-24.9-18.2-38.7-0.2-0.8-0.3-1.7-0.6-2.5-1.8-6.2-3.3-12.4-4.2-18.9-1.1-7.3-1.6-14.7-1.6-22.2v-308.6C94 3 161-64 243.3-64h537.4C863-64 930 3 930 85.3V394c0 9.1-1.1 18.1-2.7 26.8zM512 782c135.9 0 252.5-100.9 274.5-233.3h-549C259.5 681.1 376.1 782 512 782z m368-696.7c0-54.8-44.5-99.3-99.3-99.3H243.3c-54.7 0-99.3 44.6-99.3 99.3V394c0 5 0.4 9.9 1.1 14.8 0.5 3.5 1.4 7.5 2.9 12.5v0.2c0.3 1.2 0.6 2.4 0.8 3.3 2.7 8.4 6.6 16.5 11.5 24 0.2 0.4 0.5 0.7 0.7 1.1 2 2.8 4.5 5.9 6.8 8.5l0.1 0.1 0.1 0.1c0.8 1 1.6 1.9 2.1 2.7 1.3 1.4 3.2 3.1 5.2 4.9l1.3 1.2c1.4 1.3 2.6 2.5 3.5 3.4 0.5 0.3 1.1 0.8 1.6 1.1 1.1 0.8 2.4 1.7 3.8 2.7 1.4 1 2.6 1.9 3.7 2.8 0.5 0.3 1 0.8 1.5 1.1 1.1 0.5 2.6 1.3 4.2 2.2l0.9 0.5c3.3 1.8 6.4 3.6 8.6 4.5l19.8 8.5h574.9l19.6-8.4c0.5-0.3 1.6-0.9 2.4-1.4 1.6-0.9 3.5-2.1 5.7-3.2 1.1-0.6 2.3-1.2 3.4-1.8 1.1-0.5 2.5-1.3 3-1.6 1.8-1.1 4.2-3 6.8-4.9 2.7-2 5-3.9 7-5.7 2.1-2 4.1-3.8 5.6-5.3 2.3-2.5 4.9-5.6 7.7-9.4 1.3-1.8 2.5-3.3 3.4-4.3l0.1-0.1c2.4-3.7 4.8-8.2 7.2-13.5 0.3-0.6 0.8-2 1.2-3.1 0.3-0.7 0.5-1.5 0.8-2.2l0.1-0.1 0.1-0.1c1.4-3.7 2.6-7.6 3.6-11.6 0.2-0.7 0.3-1.4 0.5-2.1 0.3-1.4 0.6-2.7 0.8-3.5 1.2-6.8 1.8-12.5 1.8-17.6v-309z"  horiz-adv-x="1024" />

    
    <glyph glyph-name="dingdan-" unicode="&#58959;" d="M362.1 197.9h-29.2c-16.1 0-29.2 13.2-29.2 29.2 0 16.1 13.1 29.2 29.2 29.2h29.2c16.1 0 29.2-13.2 29.2-29.2s-13.2-29.2-29.2-29.2zM362.1 437.5h-29.2c-16.1 0-29.2 13.2-29.2 29.2 0 16.1 13.1 29.2 29.2 29.2h29.2c16.1 0 29.2-13.2 29.2-29.2s-13.2-29.2-29.2-29.2zM689 197.9H484.5c-16.1 0-29.2 13.2-29.2 29.2 0 16.1 13.1 29.2 29.2 29.2H689c16.1 0 29.2-13.2 29.2-29.2 0.1-16-13.1-29.2-29.2-29.2zM689.1 437.5H484.5c-16.1 0-29.2 13.2-29.2 29.2 0 16.1 13.1 29.2 29.2 29.2H689c16.1 0 29.2-13.2 29.2-29.2 0.1-16-13.1-29.2-29.1-29.2zM781.3-64H242.8c-49.4 0-89.8 43.4-89.8 96.5V675.6c0 53.1 40.4 96.5 89.8 96.5 16.5 0 29.9-14.5 29.9-32.2 0-17.7-13.5-32.2-29.9-32.2-16.5 0-29.9-14.5-29.9-32.2v-643.2c0-17.7 13.5-32.2 29.9-32.2h538.5c16.5 0 29.9 14.5 29.9 32.2V675.6c0 17.7-13.5 32.2-29.9 32.2-16.5 0-29.9 14.5-29.9 32.2 0 17.7 13.5 32.2 29.9 32.2 49.4 0 89.7-43.4 89.7-96.5v-643.2c0-53.1-40.4-96.5-89.7-96.5zM601.8 773.5c11.2 0 18.6-5.8 22.1-9.3 3.5-3.5 9.3-10.9 9.3-22.1 0-11.2-5.8-18.6-9.3-22.1-3.5-3.5-10.9-9.3-22.1-9.3H422.2c-11.2 0-18.6 5.8-22.1 9.3-3.5 3.5-9.3 10.9-9.3 22.1 0 11.2 5.8 18.6 9.2 22.1 3.5 3.5 10.9 9.3 22.1 9.3h179.7m0 58.5H422.2c-49.4 0-89.7-40.4-89.7-89.8s40.4-89.8 89.7-89.8h179.5c49.4 0 89.8 40.4 89.8 89.8S651.1 832 601.8 832z"  horiz-adv-x="1024" />

    
    <glyph glyph-name="weixinzhifu" unicode="&#58971;" d="M405.6 275.6c-53.6-30.2-61.6 17-61.6 17l-67.2 158.5C251 526.4 299.2 485 299.2 485s41.4-31.7 72.8-50.9c31.4-19.3 67.2-5.7 67.2-5.7l439.3 205C797.5 735.4 663.5 802 512 802 264.6 802 64.1 624.6 64.1 405.8c0-125.9 66.4-237.9 169.8-310.5l-18.7-108.4s-9.1-31.7 22.4-17c21.5 10 76.2 45.9 108.8 67.7 51.2-18.1 107-28.1 165.5-28.1 247.4 0 447.9 177.4 447.9 396.2 0 63.4-16.9 123.3-46.9 176.4C773.1 497 447.6 299.2 405.6 275.6z m0 0"  horiz-adv-x="1024" />

    
    <glyph glyph-name="dengdai" unicode="&#58972;" d="M512 781.1c53.8 0 105.9-10.5 154.9-31.2 47.4-20 90-48.7 126.5-85.1 36.6-36.5 65.3-79 85.3-126.2 20.8-49 31.3-101 31.3-154.6 0-53.6-10.5-105.6-31.2-154.5-20-47.3-48.7-89.8-85.3-126.2-36.6-36.5-79.1-65.1-126.5-85.2-49-20.7-101.2-31.2-154.9-31.2-53.8 0-105.9 10.5-154.9 31.2-47.4 20-90 48.7-126.5 85.2-36.6 36.5-65.3 79-85.3 126.2C124.5 278.4 114 330.4 114 384c0 53.6 10.5 105.6 31.2 154.5 20 47.3 48.7 89.8 85.3 126.2 36.6 36.5 79.1 65.1 126.5 85.1 49.1 20.8 101.2 31.3 155 31.3m0 50C264.6 831.1 64 630.9 64 384c0-246.9 200.6-447.1 448-447.1S960 137.1 960 384c0 246.9-200.6 447.1-448 447.1zM670.4 259.3L536.9 392.8V646.4c0 13.7-11.3 25-25 25-13.8 0-25-11.3-25-25v-274.3l50-50L635 224c9.7-9.7 25.6-9.7 35.4 0 9.7 9.7 9.7 25.6 0 35.3z"  horiz-adv-x="1024" />

    
    <glyph glyph-name="yigoukecheng" unicode="&#58974;" d="M224.2 629.2H121c-33.8 0-61.3-27-61.3-60.2v-572c0-33.2 27.5-60.2 61.3-60.2h103.1c33.9 0 61.4 27 61.4 60.2V569c0.1 33.2-27.5 60.2-61.3 60.2z m-103.2-50h103.1c6.2 0 11.4-4.7 11.4-10.2v-89.8H109.7V569c0 5.5 5.2 10.2 11.3 10.2z m103.2-592.5H121c-6.1 0-11.3 4.7-11.3 10.2V429.1h125.9v-432.2c0-5.5-5.2-10.2-11.4-10.2zM487.7 831.3H384.5c-33.8 0-61.3-27.1-61.3-60.3v-774c0-33.2 27.5-60.2 61.3-60.2h103.1c33.9 0 61.4 27 61.4 60.2V771c0.1 33.2-27.5 60.3-61.3 60.3z m-103.2-50h103.1c6.2 0 11.4-4.7 11.4-10.3v-88.8H373.2V771c0 5.6 5.2 10.3 11.3 10.3z m103.2-794.5H384.5c-6.1 0-11.3 4.7-11.3 10.2V632.2h125.9V-3c0-5.6-5.3-10.2-11.4-10.2zM961.9 49.6L801 599.5v-0.1c-8.1 26.5-32.5 43.7-58.9 43.7-5.7 0-11.4-0.8-17.1-2.4l-99.1-28c-15.5-4.2-28.7-14.5-36.6-28.5-7.9-14-9.9-30.6-5.5-46l161-549.8c8-26.5 32.4-43.7 58.8-43.7 5.6 0 11.4 0.8 17.1 2.4l99.1 28c32.6 9.2 51.5 42.7 42.1 74.5zM632.8 559.7c1.3 2.4 3.5 4.1 6.2 4.8l0.2 0.1 0.2 0.1 99.1 28h0.2c1.1 0.3 2.2 0.5 3.2 0.5 4.1 0 9.3-2.6 11-8.2l0.4-1.3 23.5-80.3-120.9-34.1-24 82.7c-0.7 2.6-0.4 5.3 0.9 7.7z m280.3-531.2c-0.8-1.5-2.8-4.1-6.8-5.3l-99.1-28h-0.2c-1.1-0.3-2.1-0.5-3.2-0.5-4 0-9.2 2.5-10.9 8L670.2 421.3 791 455.4l122.9-419.8c0.7-2.4 0.4-4.8-0.8-7.1z"  horiz-adv-x="1024" />

    
    <glyph glyph-name="jinggao--" unicode="&#58977;" d="M506.5 832C264.6 832 64 631.4 64 378.5 64 136.6 264.6-64 506.5-64 759.4-64 960 136.6 960 378.5 960 631.4 759.4 832 506.5 832z m-23.7-226.3c5.4 5.6 12.9 8.8 20.7 8.7h17c16.5 0 29.4-13.3 28.8-29.8l-11.1-284.3c-0.3-8.3-7.1-14.9-15.4-15h-21.6c-8.3 0.1-15 6.7-15.4 15l-11 284.3c-0.4 7.8 2.5 15.5 8 21.1zM512 166.4c-21.2 0-38.4 16.3-38.4 36.5 0 20.1 17.2 36.5 38.4 36.5s38.4-16.3 38.4-36.5-17.2-36.5-38.4-36.5z"  horiz-adv-x="1024" />

    
    <glyph glyph-name="fenxiangzhuanshouyi" unicode="&#58979;" d="M511.5 810c23.3 0 45.5-8.9 62.3-25 10.6-10.1 24.2-15.7 38.3-15.7 11.3 0 19.7 3.6 23.3 5.1l0.2 0.1h0.1c10.4 4.4 20 6.7 28.5 6.7 12.2 0 23.1-4.6 34.4-14.3 7.1-6.2 9.1-10.6 10.2-14.4 2-7 2.1-17.3 0.2-30.7-0.5-2-1-3.8-1.4-5.5-2.2-8.7-3.5-13.5-7-23.3v-0.1c-6.8-19.3-20.7-39.1-42.6-60.5l-6.7-6.5-0.9-0.9c-5.8-5.9-10-13-12.5-21.1-7.1-23 3.1-47.8 24.4-59 4.5-2.4 8.9-4.6 13.2-6.8 8.8-4.5 17-8.7 24.6-13.2 50.1-30 92-67.5 124.4-111.4 31.8-43.2 55.7-94 71-151.3 0.2-0.7 0.3-1.4 0.5-2.1 7.8-29.6 12.4-60.3 13.7-91.3 1.3-30.2-0.5-61.6-5.4-93.4-4.2-27.8-10.8-47.2-21.2-62.8-24.6-36.8-55-53.9-95.5-54-37.6 0-77.6-0.1-125.7-0.1H441.4c-81.6 0-144.3-0.1-203.4-0.2h-0.2c-25.7 0-50.1 9-70.5 25.9s-35.3 40.9-41.9 67.5c-10 39.7-13.3 81.9-10 128.9 5.3 77.7 30.5 152.3 72.9 215.9 42 63 99.2 112.8 165.4 143.8 2 0.9 3.7 1.7 4.8 2.3 0.2 0.1 0.4 0.2 0.7 0.3 14.4 6.8 24.7 20 27.8 35.7 3.1 15.7-1.6 31.9-12.4 43.6-2.3 2.5-4.5 4.8-6.7 7.1-4.1 4.4-8 8.5-11.5 12.4l-0.1 0.1C333.4 667.9 320 698 315.5 734c-1.4 11.2 1.2 21 7.7 29 6.4 8 16.5 14 27.5 16.3 0.2 0 0.4 0.1 0.7 0.1 4 0.9 8 1.4 12.1 1.4 8.1 0 16.2-1.8 23.4-5.2 7.9-3.8 16.2-5.7 24.6-5.7 9.7 0 24.3 2.7 38.2 15.3 0.2 0.1 0.3 0.3 0.5 0.4C466.7 801.3 488.5 810 511.5 810m0 50c-34.4 0-68.8-12.6-95.7-37.8-1.6-1.5-2.9-2.3-4.5-2.3-0.9 0-1.9 0.3-3.1 0.9-14.1 6.7-29.5 10.1-44.9 10.1-7.7 0-15.5-0.9-23.1-2.6-44.2-9.4-80.9-47.9-74.5-100.4 5.7-45.6 23-85.1 52.9-119.1 6.1-7 12.6-13.6 19.2-20.7-1.7-0.8-3.2-1.7-4.9-2.4C180.4 514.4 77.4 359.8 65.3 183.8c-3.3-48.6-0.5-96.8 11.4-144.5 18.8-75 83.4-131.3 160.9-131.3h0.3c67.7 0.2 135.5 0.2 203.3 0.2 73.5 0 147-0.1 220.5-0.1 41.9 0 83.8 0 125.7 0.1 58.9 0.1 104.2 27.1 137 76.2 16.7 25 24.5 53.3 29.1 83 10.6 69 8.4 137.5-9.4 205h0.1C910.4 400.9 838.3 500 725.4 567.5c-13 7.7-26.7 14.2-40.1 21.3 0.1 0.2 0.2 0.6 0.4 0.8l6.8 6.6c23.2 22.7 44.1 48.9 54.9 79.8 5.3 15 6.6 21.5 10.3 35.4 6.8 44-1.1 70.7-26.6 92.9-20.9 18.1-43.5 26.6-67.2 26.6-15.6 0-31.6-3.7-48.1-10.6-1.5-0.6-2.7-1.2-4-1.2-1.2 0-2.3 0.5-3.7 1.8-26.8 26.1-61.7 39-96.6 39.1zM611.3 161.8h-70.5c-1.2 0-2.3 0.5-3.2 1.3-0.8 0.9-1.3 2-1.3 3.2l1.1 43.3c0.1 2.4 2 4.3 4.4 4.3 16.3 0.3 32.7 0.5 49 0.8 13.4 0.2 33.5-3.7 42.7 8.7 4 5.4 4.7 13.2 1.8 19.9-4.2 9.5-13.8 12.9-23.5 13.7-23.4 1.9-47.5-0.3-71-0.3-2.4 0-4.4 2-4.4 4.4v26.2l0.6 0.7 0.8 0.8c22.2 23.5 41.3 45 58.5 65.6 2.3 2.8 5.4 6 8.7 9.4 14.6 15.3 34.6 36.3 22.9 51.5v0.1l-0.2 0.3c-3.2 5.3-9.4 8.6-16 8.6-2.7 0-5.3-0.5-7.7-1.6-6.2-2.7-11.2-7.7-16.1-12.6-27.1-27.4-49.7-50.5-72-74.3l-1.2-1.3c-0.7-0.7-1.6-1.1-2.6-1.1-2.2 0-4.1 2-4.6 2.7l-0.5 0.6c-3.5 4.3-28.3 32.6-51 58.3l-0.1 0.1c-0.8 0.9-1.6 1.9-2.5 2.9-9.8 11.2-26.1 29.9-39.8 29.9-4.5 0-8.4-2.2-12-6.7-11.5-14.5 0.6-32.9 12.4-47.3 27.1-33 49.8-59.8 71.4-84.3l0.7-0.8 0.6-0.7v-0.9l-1.2-27.7c-0.1-2.4-2-4.2-4.4-4.2-21.2 0-42.5 0.6-63.7 0.2-13.7-0.2-29.1-3.7-30.2-19.9-0.4-6.4 0.9-11.2 4.2-14.6 5.4-5.8 14.7-7 22.2-7.3 22.4-0.9 45 0.1 67.5 0.1 2.4 0 4.4-2 4.4-4.4v-44.6c0-1.2-0.5-2.3-1.3-3.1-0.8-0.8-2-1.3-3.1-1.3-19.2 0-38.5 0.2-57.7 0.5-12 0.2-29.2 1-35-12.3-3.1-7.3-1-16.5 4.9-21.5 7.2-6.1 18.2-6.2 27.1-5.8 18.9 0.9 37.8 1.2 56.8 1.2h3.9c2.4 0 4.4-2 4.4-4.4 0-8.5-1.5-16.9-0.5-25.4 0.8-6.6 3-13.1 7.3-18.1 8.7-9.8 24.4-10.3 34.5-2.5 11.2 8.6 10.1 24.6 9.6 37.1-0.1 3.1-0.2 6-0.2 8.8 0 1.2 0.5 2.3 1.3 3.1 0.8 0.8 2 1.3 3.1 1.3 17.3 0 34.7-0.1 52-0.2 12.3-0.1 30.1-3.1 40.3 5.7 5.9 5.1 5.9 14.1 2.9 20.9-4 9.6-15 13-24.5 13z"  horiz-adv-x="1024" />

    
    <glyph glyph-name="brankcard" unicode="&#58988;" d="M836.266667 728.557037H187.733333c-55.466667 0-100.503704-45.037037-100.503703-100.503704v-489.149629c0-54.897778 45.037037-99.460741 100.503703-99.460741h648.533334c55.466667 0 100.503704 44.562963 100.503703 99.460741V628.053333c0 55.466667-45.037037 100.503704-100.503703 100.503704z m53.096296-589.653333c0-29.013333-23.798519-52.527407-53.096296-52.527408H187.733333c-29.297778 0-53.096296 23.608889-53.096296 52.527408V517.404444h754.725926v-378.50074zM134.637037 564.811852v63.241481c0 29.297778 23.798519 53.096296 53.096296 53.096297h648.533334c29.297778 0 53.096296-23.798519 53.096296-53.096297v-63.241481H134.637037zM488.201481 309.475556H217.41037c-13.084444 0-23.703704 10.619259-23.703703 23.703703s10.619259 23.703704 23.703703 23.703704h270.791111c13.084444 0 23.703704-10.619259 23.703704-23.703704s-10.619259-23.703704-23.703704-23.703703zM430.648889 203.282963H217.41037c-13.084444 0-23.703704 10.619259-23.703703 23.703704s10.619259 23.703704 23.703703 23.703703h213.238519c13.084444 0 23.703704-10.619259 23.703704-23.703703s-10.619259-23.703704-23.703704-23.703704zM646.068148 309.475556h-57.457778c-13.084444 0-23.703704 10.619259-23.703703 23.703703s10.619259 23.703704 23.703703 23.703704h57.457778c13.084444 0 23.703704-10.619259 23.703704-23.703704s-10.619259-23.703704-23.703704-23.703703z"  horiz-adv-x="1024" />

    
    <glyph glyph-name="qianbao" unicode="&#59030;" d="M870.3 547.5c21.8 0 39.6-17.7 39.7-39.4v-476.6c0-21.7-17.8-39.4-39.7-39.4H153.7c-21.8 0-39.6 17.7-39.7 39.4V508.1c0 21.7 17.8 39.4 39.7 39.4h716.6m0.1 50H153.6c-49.5-0.1-89.5-40-89.6-89.4v-476.7c0.1-49.3 40.1-89.3 89.6-89.4h716.8c49.5 0.1 89.5 40 89.6 89.4V508.2c-0.1 49.3-40.1 89.3-89.6 89.3zM910 398.6v-257.5H721.1c-21.8 0-39.6 17.7-39.7 39.4V359.2c0 21.7 17.8 39.4 39.7 39.4H910m20.1 50h-209c-49.5-0.1-89.5-40-89.6-89.4v-178.7c0.1-49.3 40.1-89.3 89.6-89.4h209.1c16.5 0 29.9 13.3 29.9 29.8V418.8c-0.1 16.5-13.5 29.8-30 29.8zM370.8 766.3c13.9 0 27.6-3.7 39.7-10.6l51.7-29.8c17.7-10.1 30.6-26.4 36.4-45.9 1.5-5.1 1-10.4-1.5-15-2.5-4.7-6.7-8.1-11.8-9.6-1.9-0.6-3.8-0.8-5.7-0.8-8.7 0-16.5 5.8-19 14.1-2.9 9.8-9.4 17.9-18.3 23l-51.7 29.8c-6.1 3.5-12.9 5.3-19.9 5.3-14.2 0-27.4-7.6-34.6-19.9l-86.2-149c-3.5-6.1-10.1-9.9-17.2-9.9s-13.7 3.8-17.2 9.9c-3.5 6.1-3.5 13.7 0 19.8l86.2 149c7.1 12.3 17.4 22.4 29.7 29.4 12 6.6 25.6 10.2 39.4 10.2M636.6 825.9c21.3 0 41.3-8.3 56.3-23.3l84.5-84.3c15-15 23.3-34.9 23.3-56.1 0-21.2-8.3-41.1-23.3-56.1l-52.5-52.4c-3.7-3.7-8.8-5.8-14.1-5.8-8.1 0-15.3 4.8-18.4 12.2-3.1 7.4-1.4 15.9 4.3 21.6l52.5 52.4c7.5 7.5 11.7 17.5 11.7 28.1 0 10.6-4.1 20.6-11.7 28.1l-84.5 84.3c-7.5 7.5-17.5 11.7-28.2 11.7-10.6 0-20.7-4.1-28.2-11.6L387 553.8c-3.7-3.7-8.9-5.9-14.1-5.9-1.7 0-3.4 0.2-5.1 0.7-6.9 1.8-12.3 7.2-14.1 14-1.8 6.8 0.2 14.2 5.2 19.2L580.3 802.6c15 15 35 23.3 56.3 23.3M775.6 269.8c0-19.9 16.1-36 36-36s36 16.1 36 36-16.1 36-36 36-36-16.1-36-36z m0 0"  horiz-adv-x="1024" />

    
    <glyph glyph-name="lingqian" unicode="&#59031;" d="M511.949995 876.698115C240.02344 876.698115 19.301885 655.97656 19.301885 384.050005c0-271.926555 220.721555-492.64811 492.64811-492.64811 271.926555 0 492.64811 220.721555 492.64811 492.64811 0.10001 271.926555-220.621545 492.64811-492.64811 492.64811z m-0.900088-818.979978c-16.301592 0-29.502881 13.201289-29.502881 29.502881v102.009962H314.030667c-16.301592 0-29.502881 13.201289-29.502881 29.502881s13.201289 29.502881 29.502881 29.502881h167.516359V386.850278H314.030667c-16.301592 0-29.502881 13.201289-29.502881 29.502881s13.201289 29.502881 29.502881 29.502882h167.516359V471.95859L292.828597 661.177068c-10.901065 10.901065-10.901065 28.502783 0 39.403848 5.300518 5.300518 12.301201 8.200801 19.701924 8.200801s14.401406-2.900283 19.701924-8.200801l178.317413-178.317414 180.31761 179.817561c5.300518 5.300518 12.401211 8.200801 20.001953 8.2008s14.901455-2.900283 20.401992-8.30081c10.901065-10.901065 10.801055-29.002832-0.10001-40.403946L540.552788 470.958492v-25.6025h171.016701v0.300029c14.601426-1.700166 26.002539-14.201387 26.00254-29.302862 0-16.301592-13.201289-29.502881-29.502882-29.502881H540.552788v-138.513526H708.069147c16.301592 0 29.502881-13.201289 29.502882-29.502882s-13.201289-29.502881-29.502882-29.502881H540.552788v-102.009962c0-16.301592-13.201289-29.602891-29.502881-29.60289z"  horiz-adv-x="1024" />

    
    <glyph glyph-name="yue" unicode="&#59037;" d="M511.949995 832.093759c-247.324153 0-448.043754-200.719602-448.043754-448.043754s200.719602-448.043754 448.043754-448.043754 448.043754 200.719602 448.043754 448.043754-200.719602 448.043754-448.043754 448.043754z m-0.800078-744.772732c-14.801445 0-26.802617 12.001172-26.802617 26.802618V206.932708H331.932415c-14.801445 0-26.802617 12.001172-26.802617 26.802618s12.001172 26.802617 26.802617 26.802617h152.414885v126.012306H331.932415c-14.801445 0-26.802617 12.001172-26.802617 26.802617s12.001172 26.802617 26.802617 26.802618h152.414885V463.957808L312.73054 636.074617c-9.900967 9.900967-9.900967 25.90253 0 35.803496 4.800469 4.800469 11.201094 7.500732 17.901748 7.500733 6.700654 0 13.101279-2.700264 17.901749-7.500733l162.215841-162.215841 164.016017 163.515968c4.800469 4.800469 11.301104 7.500732 18.201778 7.500733 6.900674 0 13.501318-2.700264 18.601816-7.500733 9.900967-9.900967 9.900967-26.402578-0.10001-36.703584L537.952534 463.15773v-23.302275h155.615197v0.300029c13.301299-1.600156 23.602305-12.90126 23.602305-26.602598 0-14.801445-12.001172-26.802617-26.802617-26.802617H537.952534v-126.012306h152.414885c14.801445 0 26.802617-12.001172 26.802617-26.802618s-12.001172-26.802617-26.802617-26.802617H537.952534v-92.809064c0-15.001465-12.001172-27.002637-26.802617-27.002637z"  horiz-adv-x="1024" />

    
    <glyph glyph-name="bangzhu" unicode="&#59039;" d="M511.949995 832.093759c-247.324153 0-448.043754-200.719602-448.043754-448.043754s200.719602-448.043754 448.043754-448.043754 448.043754 200.719602 448.043754 448.043754c0 247.224143-200.719602 448.043754-448.043754 448.043754m172.016799-320.031253c0-53.305206-14.201387-89.708761-91.808966-140.413712-41.304034-27.002637-52.205098-76.90751-52.205098-99.609728v-16.001562c0-15.401504-12.601231-28.002735-28.002735-28.002735s-28.002735 12.601231-28.002735 28.002735v16.201582C484.04727 311.942963 508.049614 359.347593 541.052837 385.150112c3.400332 2.700264 6.700654 5.200508 9.900967 7.700752 49.604844 38.50376 77.00752 59.705831 77.00752 119.211642 0 64.006251-52.005079 116.011329-116.011329 116.011329-63.806231 0-115.81131-52.005079-116.011329-116.011329v-16.001563c0-15.401504-12.601231-28.002735-28.002735-28.002734s-28.002735 12.601231-28.002734 28.002734v16.001563c0 94.809259 77.20754 172.016799 172.016798 172.016799 94.909268 0 172.016799-77.20754 172.016799-172.016799z m-172.016799-430.041996c-16.601621 0-30.00293 13.401309-30.00293 30.00293s13.401309 30.00293 30.00293 30.00293 30.00293-13.401309 30.00293-30.00293-13.401309-30.00293-30.00293-30.00293"  horiz-adv-x="1024" />

    
    <glyph glyph-name="shezhi1" unicode="&#59040;" d="M381.8 759.4c0.4 0 0.7-0.1 0.9-0.2l0.6-0.6c11.5-10.4 71.8-62.3 128.2-62.3 59.2 0 122.6 57.1 128.4 62.5 0.4 0.2 1.1 0.4 2 0.4l129.3-74.7c0.2-0.5 0.4-1 0.5-1.4l-0.1-0.3c-2-9.2-19-91.6 9.9-142.4l0.1-0.1 0.1-0.1c28.3-48.9 103.2-75.3 118-80.1l0.5-0.2c0.8-0.5 2-1.9 2.4-2.8l0.3-1.5 0.1-0.4c1.3-7.8 7-45.2 7-71.3 0-26.5-6-65.3-7.3-72.5l-0.1-0.3-0.1-0.3c-0.4-0.9-1.5-2.2-2.4-2.8-12.3-3.7-33.8-12.1-54.8-23.7-30.5-16.8-52-35.9-63.9-56.8-28.9-50.7-11.9-133.1-9.9-142.4l0.1-0.3c-0.1-0.5-0.3-1.2-0.6-1.8l-128.7-74.4c-0.7 0.1-1.4 0.4-1.7 0.6-11.5 10.4-71.8 62.3-128.2 62.3-59.2 0-122.6-57.1-128.4-62.5-0.4-0.2-1.2-0.4-2-0.4l-129.3 74.7c-0.2 0.5-0.4 1-0.5 1.4l0.1 0.3c2 9.2 19 91.6-9.9 142.4l-0.1 0.1-0.1 0.1C214 276.7 139 303 124.3 307.8l-0.5 0.2c-0.8 0.5-2 1.9-2.4 2.8l-0.2 1.4-0.1 0.4c-1.3 7.7-7 45.3-7 71.4 0 26.4 5.8 64.2 7.3 72.6l0.1 0.3v0.2c0.4 0.9 1.5 2.2 2.4 2.8 12.3 3.7 33.8 12.1 54.8 23.7 30.5 16.8 52 35.9 63.9 56.8 28.9 50.7 11.9 133.1 9.9 142.4l-0.1 0.3c0.1 0.5 0.3 1.3 0.6 1.8l128.8 74.5m-0.5 50c-7 0-13.9-1.4-20.2-4.2l-135.4-78.4-2.7-1.8c-15.9-11.8-24-34-19.5-53 4.1-18.6 12.2-77.5-4.5-106.9-16.8-29.4-72-52.1-90.1-57.5-18.1-5.4-33.5-23.1-36.7-41.7-0.4-2.3-8.2-48-8.2-82s7.7-80.2 8.2-82c3.2-18.6 18.6-36.2 36.7-41.7 18.1-5.9 73.4-28.5 90.1-57.5 16.8-29.4 8.6-88.3 4.5-106.9-4.5-19 3.6-41.2 19.5-53L359.3-36l2.7-1.4c6.1-2.7 13-4 19.9-4 13 0 26.3 4.6 35.8 13.5 13.6 12.7 60.7 49.4 94.7 49.4 33.5 0 80.6-36.7 94.7-49.4 9.5-8.6 22.7-13.6 35.8-13.6 6.8 0 13.6 1.4 19 3.6L798.3 41l2.7 1.8c15.9 11.8 24 34 19.5 53-4.1 18.6-12.2 77.5 4.5 106.9 16.8 29.4 72 52.1 90.1 57.5 18.1 5.4 33.5 23.1 36.7 41.7 0.5 2.3 8.2 48 8.2 82s-7.7 80.2-8.2 82c-3.2 18.6-18.6 36.2-36.7 41.7-18.1 5.9-73.4 28.5-90.1 57.5-16.8 29.4-8.6 88.3-4.5 106.9 4.5 19-3.6 41.2-19.5 53L664.7 803.9l-2.7 1.4c-6.1 2.7-13 4-19.9 4-13 0-26.3-4.6-35.8-13.5-13.6-12.7-60.7-49.4-94.7-49.4-33.5 0-80.6 36.7-94.7 49.4-9.2 8.8-22.4 13.6-35.6 13.6zM512 467.2c22.1 0 43-8.7 58.8-24.4 15.8-15.8 24.4-36.6 24.4-58.8 0-22.1-8.7-43-24.4-58.8-15.8-15.8-36.6-24.4-58.8-24.4-45.9 0-83.2 37.3-83.2 83.2 0 45.9 37.3 83.2 83.2 83.2m0 50c-73.4 0-133.2-59.8-133.2-133.2 0-73.4 59.8-133.2 133.2-133.2 73.4 0 133.2 59.8 133.2 133.2 0 73.4-59.8 133.2-133.2 133.2z"  horiz-adv-x="1024" />

    
    <glyph glyph-name="collect-active" unicode="&#59041;" d="M512.4 815.7c-31.9 0-62.1-19.1-76.9-48.8l-92.3-187.6L137.4 541.9c-32.4-4.3-59.1-26.9-69.8-59.2l-0.3-1c-8.6-31.4 0.1-65 23-88.2l148-138L199.7 55c-6.3-31.3 7.3-65.6 33.7-85.4 14.5-10.7 32-16.5 50.1-16.5h0.3c14 0 27.6 3.3 39.6 9.7l188.9 93.7 187.8-93.9c13.1-6.6 27.3-10.2 39.9-10.2h0.6c18 0 35.5 6.2 49.6 17.5 26.6 20.2 39.3 52.6 33.3 84.7l-37.3 200.8 147.6 139 0.5 0.5c23.3 23.1 31.6 57.3 21.4 88.5-9.1 31.7-35.9 55.2-68.5 59.9l-205.8 36-92 187c-12.8 29.6-43.8 49.4-77 49.4z"  horiz-adv-x="1024" />

    
    <glyph glyph-name="jian1" unicode="&#58912;" d="M801.171 348.411H222.83c-17.673 0-32 14.327-32 32s14.327 32 32 32h578.341c17.673 0 32-14.327 32-32s-14.327-32-32-32z"  horiz-adv-x="1024" />

    
    <glyph glyph-name="jia1" unicode="&#59022;" d="M546.133333 418.133333h273.066667v-68.266666h-273.066667v-307.2h-68.266666v307.2H204.8v68.266666h273.066667V691.2h68.266666z"  horiz-adv-x="1024" />

    
    <glyph glyph-name="quan" unicode="&#59201;" d="M510.959 825.666c-243.334 0-440.596-197.245-440.596-440.597 0-243.319 197.264-440.596 440.596-440.596 243.317 0 440.597 197.275 440.597 440.596-0.001 243.353-197.28 440.597-440.597 440.597v0zM510.959 12.171c-205.936 0-372.902 166.943-372.902 372.897 0 205.961 166.965 372.902 372.902 372.902 205.959 0 372.901-166.943 372.901-372.902 0-205.953-166.943-372.897-372.901-372.897v0zM510.959 12.171z"  horiz-adv-x="1024" />

    
    <glyph glyph-name="icon-test" unicode="&#58919;" d="M505.1 425.7m-391.7 0a391.7 391.7 0 1 1 783.4 0 391.7 391.7 0 1 1-783.4 0ZM505.1 6C273.7 6 85.4 194.3 85.4 425.7S273.7 845.4 505.1 845.4s419.7-188.3 419.7-419.7S736.5 6 505.1 6z m0 783.4c-200.6 0-363.7-163.2-363.7-363.7S304.5 62 505.1 62s363.7 163.2 363.7 363.7-163.1 363.7-363.7 363.7z"  horiz-adv-x="1024" />

    
    <glyph glyph-name="xuanzhong1" unicode="&#58962;" d="M512.177204-128c-282.383414 0-512.177204 229.679465-512.177204 512.005716S229.79379 896 512.177204 896s512.177204-229.679465 512.177204-511.994284-229.759493-512.005716-512.177204-512.005716z m0 974.531456c-255.12827 0-462.685795-207.48893-462.685795-462.52574S257.048934-78.531456 512.177204-78.531456s462.697228 207.48893 462.697228 462.537172S767.305474 846.531456 512.177204 846.531456zM111.341379 384.005716a400.835825 400.698635 0 1 1 801.67165 0 400.835825 400.698635 0 1 1-801.67165 0Z"  horiz-adv-x="1024" />

    
    <glyph glyph-name="jian" unicode="&#59006;" d="M99 797.1v-829h829v829H99z m787.5-787.6H140.4V755.7h746.1v-746.2z m0 0M720.7 361.9H306.2c-12.4 0-20.7 8.3-20.7 20.7 0 12.4 8.3 20.7 20.7 20.7h414.5c12.4 0 20.7-8.3 20.7-20.7 0.1-10.4-10.3-20.7-20.7-20.7z m0 0"  horiz-adv-x="1024" />

    
    <glyph glyph-name="jia" unicode="&#59019;" d="M925.1-32.7H96.3V797.8h828.8v-830.5zM140 11h741.3V754.1H140V11z m0 0M761.6 361.5H258.9c-12.2 0-21.8 9.6-21.8 21.9 0 12.2 9.6 21.9 21.8 21.9h502.7c12.2 0 21.9-9.6 21.9-21.9-0.1-12.2-9.7-21.9-21.9-21.9z m0 0M510.7 119.4c-12.2 0-21.9 9.6-21.9 21.9V624.7c0 12.2 9.6 21.9 21.9 21.9 12.2 0 21.9-9.6 21.9-21.9v-483.4c-0.1-11.4-9.7-21.9-21.9-21.9z m0 0"  horiz-adv-x="1024" />

    
    <glyph glyph-name="xuanzhong" unicode="&#58900;" d="M512 831.434C264.887 831.434 64.564 631.112 64.564 384c0-247.11 200.323-447.433 447.436-447.433 247.111 0 447.436 200.323 447.436 447.433C959.436 631.112 759.11 831.434 512 831.434z m246.734-310.812L456.731 218.616c-7.108-7.107-16.85-9.97-26.084-8.597-9.233-1.374-18.975 1.49-26.083 8.597l-139.3 139.3c-11.913 11.914-11.913 31.231 0 43.145 11.914 11.914 31.23 11.914 43.144 0l122.24-122.24L715.59 563.763c11.914 11.913 31.23 11.913 43.142 0 11.915-11.913 11.915-31.23 0.001-43.142z"  horiz-adv-x="1024" />

    
    <glyph glyph-name="sousuo1" unicode="&#59016;" d="M1017.6-76.8l-153.6 153.6c76.8 89.6 128 198.4 128 326.4-6.4 275.2-224 492.8-492.8 492.8-268.8 0-492.8-217.6-492.8-486.4 0-268.8 217.6-486.4 486.4-486.4 115.2 0 224 38.4 307.2 108.8l160-160 57.6 51.2zM83.2 409.6c0 230.4 185.6 409.6 409.6 409.6 230.4 0 409.6-185.6 409.6-409.6s-185.6-409.6-409.6-409.6c-224-6.4-409.6 179.2-409.6 409.6v0z"  horiz-adv-x="1024" />

    
    <glyph glyph-name="sousuo" unicode="&#58901;" d="M911.182027-2.238738 755.794004 166.304909c-0.11768 0.12382-0.25378 0.208754-0.370437 0.330528 73.567529 70.137407 119.567189 168.960133 119.567189 278.395568 0 212.18254-172.626639 384.805086-384.804063 384.805086-212.18561 0-384.806109-172.621523-384.806109-384.805086 0-212.18254 172.621523-384.804063 384.806109-384.804063 75.575256 0 146.07082 21.988804 205.589378 59.774385 1.055029-1.937119 2.270716-3.800559 3.836375-5.496178l155.39007-168.539554c10.211573-11.081383 27.482935-11.784394 38.561247-1.571798l16.054651 14.806217C920.702867-30.585343 921.395646-13.319098 911.182027-2.238738zM154.504398 445.031005c0 185.094602 150.585647 335.681272 335.681272 335.681272 185.090509 0 335.681272-150.58667 335.681272-335.681272 0-185.094602-150.590763-335.681272-335.681272-335.681272C305.090045 109.34871 154.504398 259.936403 154.504398 445.031005z"  horiz-adv-x="1024" />

    
    <glyph glyph-name="dianzan" unicode="&#58902;" d="M935.161672 758.391922C878.432647 816.902524 803.01498 849.139739 722.8021 849.139739c-75.470879 0-147.870816-28.883841-203.847711-81.401961l-6.977925-6.487761-6.978948 6.535857C449.019597 820.255899 376.642173 849.139739 301.17641 849.139739c-80.21288 0-155.61622-32.257681-212.359572-90.74884-57.047274-58.911738-88.469937-137.123031-88.469937-220.35978 0-83.259262 31.422663-161.470555 88.469937-220.407875l360.713388-372.063901c16.698311-17.207917 38.884612-26.699082 62.466704-26.699082 23.586185 0 45.77351 9.491165 62.47182 26.699082 0 0 356.737844 367.969653 360.691899 372.063901 57.068763 58.909691 88.491427 137.123031 88.491427 220.407875C1023.653099 621.246379 992.207923 699.459718 935.161672 758.391922L935.161672 758.391922zM903.296941 350.206336 542.583552-21.856541c-8.138354-8.443299-19.024286-13.095249-30.608112-13.095249-11.582803 0-22.442128 4.631484-30.608112 13.115716L120.680547 350.184847c-48.563042 50.095955-75.306126 116.773564-75.306126 187.824783 0 71.000054 26.743084 137.724735 75.306126 187.771571 48.279586 49.79715 112.443955 77.216639 180.702572 77.216639 64.094784 0 125.635395-24.629957 173.33579-69.306482l37.256532-34.930557 37.284161 34.930557c47.672766 44.698015 109.234867 69.306482 173.330674 69.306482 68.284199 0 132.448568-27.445072 180.707688-77.216639 48.563042-50.046836 75.306126-116.77254 75.306126-187.771571C978.603067 466.978876 951.859983 400.302291 903.296941 350.206336L903.296941 350.206336zM903.296941 350.206336M270.429129 709.599659l-2.490727-0.025583-0.041956-0.048095c-70.797439-1.36816-127.98286-59.394738-127.98286-130.469494 0-11.860119 9.650801-21.51092 21.509896-21.51092 11.860119 0 21.516036 9.650801 21.516036 21.532409 0 48.237631 39.258119 87.517239 87.512123 87.517239 11.865235 0 21.516036 9.650801 21.516036 21.516036C291.966655 699.970348 282.289248 709.599659 270.429129 709.599659L270.429129 709.599659zM270.429129 709.599659"  horiz-adv-x="1024" />

    
    <glyph glyph-name="dingwei1" unicode="&#58903;" d="M515.417331-82.654232c-58.611909-0.358157-352.582197 443.447694-352.582197 591.852676 0 196.158588 157.851121 355.080088 352.582197 355.080088 194.685028 0 352.537172-158.920476 352.537172-355.080088C867.954503 362.747977 573.099055-83.01239 515.417331-82.654232zM515.417331 824.013479c-172.369789 0-312.049039-140.391471-312.049039-313.38957 0-131.126456 260.158205-533.059642 312.049039-532.87954 51.045583-0.181125 312.048015 403.532613 312.048015 532.87954C827.465346 683.622008 687.744141 824.013479 515.417331 824.013479zM515.417331 361.148549c-81.151251 0-146.938584 66.276473-146.938584 148.049894 0 81.598436 65.787332 147.874909 146.938584 147.874909 81.108273 0 146.895605-66.276473 146.895605-147.874909C662.312936 427.425022 596.52458 361.148549 515.417331 361.148549zM515.417331 604.517369c-51.715849 0-93.622284-42.045605-93.622284-93.89346 0-52.022841 41.907459-94.069469 93.622284-94.069469 51.66673 0 93.580329 42.045605 93.580329 94.069469C608.99766 562.471764 567.084061 604.517369 515.417331 604.517369z"  horiz-adv-x="1024" />

    
    <glyph glyph-name="erweima" unicode="&#58904;" d="M242.373-20.211 53.86-20.211 53.86 788.21l188.513 0c14.872 0 26.931 12.064 26.931 26.947s-12.059 26.947-26.931 26.947L26.926 842.104C12.056 842.105 0 830.041 0 815.158l0-862.316c0-14.88 12.056-26.947 26.926-26.947l215.447 0c14.872 0 26.931 12.067 26.931 26.95C269.304-32.272 257.245-20.211 242.373-20.211zM997.055 842.105 781.474 842.105c-14.88 0-26.947-12.064-26.947-26.947s12.067-26.947 26.947-26.947l188.632 0 0-808.421L781.474-20.21c-14.88 0-26.947-12.062-26.947-26.945 0-14.883 12.067-26.95 26.947-26.95l215.582 0c14.88 0 26.945 12.067 26.945 26.947L1024.001 815.158C1024 830.041 1011.936 842.105 997.055 842.105zM781.474 383.995c0 14.886-12.064 26.95-26.947 26.95L269.474 410.945c-14.883 0-26.947-12.064-26.947-26.95 0-14.883 12.064-26.945 26.947-26.945l485.053 0C769.409 357.05 781.474 369.112 781.474 383.995z"  horiz-adv-x="1025" />

    
    <glyph glyph-name="fanhui1" unicode="&#58905;" d="M340.154182 360.727273l421.050182 421.050182c9.076364 9.076364 9.076364 23.831273 0 32.907636-9.076364 9.076364-23.831273 9.076364-32.907636 0l-437.480727-437.480727c-9.076364-9.076364-9.076364-23.831273 0-32.907636l437.480727-437.480727c9.076364-9.076364 23.831273-9.076364 32.907636 0 9.076364 9.076364 9.076364 23.831273 0 32.907636L340.154182 360.727273z"  horiz-adv-x="1024" />

    
    </font>
</defs>
</svg>
